<?xml version="1.0" encoding="UTF-8" standalone="no"?>
<!DOCTYPE svg PUBLIC "-//W3C//DTD SVG 1.1//EN" "http://www.w3.org/Graphics/SVG/1.1/DTD/svg11.dtd">
<svg width="100%" height="100%" viewBox="0 0 4535 4535" version="1.1" xmlns="http://www.w3.org/2000/svg" xmlns:xlink="http://www.w3.org/1999/xlink" xml:space="preserve" xmlns:serif="http://www.serif.com/" style="fill-rule:evenodd;clip-rule:evenodd;stroke-linejoin:round;stroke-miterlimit:1.41421;">
    <g transform="matrix(1,0,0,1,41.9969,142.039)">
        <rect x="204.119" y="34.025" width="27.344" height="167.448" style="fill:rgb(0,0,255);fill-rule:nonzero;"/>
    </g>
    <g transform="matrix(1,0,0,1,4.62676,139.746)">
        <path d="M605.043,36.057L708.428,36.057L708.428,43.609L670.407,43.609L670.407,203.766L643.064,203.766L643.064,43.609L605.043,43.609L605.043,36.057Z" style="fill:rgb(0,0,255);fill-rule:nonzero;"/>
    </g>
    <g transform="matrix(1,0,0,1,-0.713944,142.629)">
        <path d="M1114.56,33.435L1056.75,81.091L1118.99,200.883L1109.88,200.883C1103.1,189.771 1094.47,174.103 1083.96,153.877C1073.46,133.652 1064.56,116.247 1057.27,101.664L1046.59,79.789L1102.84,33.435L1114.56,33.435ZM1035.66,33.435L1035.66,200.883L1008.31,200.883L1008.31,33.435L1035.66,33.435Z" style="fill:rgb(0,0,255);fill-rule:nonzero;"/>
    </g>
    <g transform="matrix(1,0,0,1,48.249,125.189)">
        <rect x="1402.59" y="50.874" width="27.344" height="167.448" style="fill:rgb(0,0,255);fill-rule:nonzero;"/>
    </g>
    <g transform="matrix(1,0,0,1,1.26027,149.71)">
        <path d="M1896.15,30.076L1892.51,36.587C1885.74,33.462 1878.01,32.68 1869.33,34.243C1855.27,36.5 1846.5,43.444 1843.03,55.076C1841.64,60.632 1841.81,65.146 1843.55,68.618C1845.29,72.09 1848.59,75.996 1853.45,80.337L1896.41,107.68C1906.31,114.625 1912.82,121.135 1915.95,127.212C1918.03,131.031 1919.25,136.153 1919.59,142.576C1919.94,148.826 1919.42,154.469 1918.03,159.503C1914.73,172.177 1907.09,181.986 1895.11,188.93C1884.17,194.833 1873.41,197.611 1862.82,197.264C1850.15,196.917 1839.47,194.226 1830.79,189.191C1824.19,185.024 1819.07,179.903 1815.42,173.826C1811.78,167.75 1809.96,161.326 1809.96,154.555L1817.51,154.035C1818.2,167.055 1823.85,176.604 1834.44,182.68C1842.42,187.194 1851.97,189.625 1863.08,189.972C1873.5,190.146 1882.4,187.281 1889.77,181.378C1897.15,175.476 1900.84,167.576 1900.84,157.68C1900.84,153.687 1899.02,149.173 1895.37,144.139C1892.25,139.625 1887.91,135.719 1882.35,132.42L1838.08,103.774C1831.31,97.524 1827.06,90.84 1825.32,83.722C1822.54,68.444 1826.8,54.555 1838.08,42.055C1844.51,34.937 1853.4,30.163 1864.77,27.733C1876.15,25.302 1886.61,26.083 1896.15,30.076Z" style="fill:rgb(0,0,255);fill-rule:nonzero;"/>
    </g>
    <g transform="matrix(1,0,0,1,-21.8756,139.79)">
        <path d="M2374.69,130.805C2374.17,138.27 2372.48,145.605 2369.62,152.81C2366.75,160.015 2362.8,166.656 2357.77,172.732C2352.73,178.809 2346.87,184.19 2340.19,188.878C2333.5,193.565 2325.82,197.211 2317.14,199.815C2308.46,202.42 2299.43,203.722 2290.06,203.722C2275.3,203.722 2261.59,200.249 2248.91,193.305L2248.91,184.19C2253.08,186.795 2257.51,189.052 2262.19,190.961C2271.22,194.434 2280.51,196.17 2290.06,196.17C2300.3,196.17 2310.2,194.173 2319.74,190.18C2329.47,186.187 2337.89,180.545 2345.01,173.253C2351.43,166.829 2356.64,159.451 2360.63,151.118L2306.2,151.118L2306.2,130.805L2374.69,130.805ZM2237.97,60.493L2237.97,186.013C2226.69,177.506 2218.1,166.743 2212.19,153.722L2211.93,153.461L2211.93,153.201C2206.9,142.09 2204.38,130.458 2204.38,118.305C2204.38,99.381 2210.89,81.152 2223.91,63.618C2227.91,58.409 2232.59,53.809 2237.97,49.815L2237.97,60.493ZM2323.65,39.399C2334.41,44.086 2343.79,50.597 2351.78,58.93L2344.74,62.836C2337.63,55.718 2329.21,50.249 2319.49,46.43C2309.94,42.437 2300.13,40.44 2290.06,40.44C2280.51,40.44 2271.22,42.177 2262.19,45.649C2257.51,47.385 2253.08,49.555 2248.91,52.159L2248.91,42.784C2249.95,42.263 2251.08,41.743 2252.3,41.222C2264.1,35.493 2276.69,32.628 2290.06,32.628C2301.69,32.628 2312.89,34.885 2323.65,39.399Z" style="fill:rgb(0,0,255);fill-rule:nonzero;"/>
    </g>
    <g transform="matrix(1,0,0,1,-8.12751,138.105)">
        <path d="M2730.62,37.958L2730.62,205.406L2723.07,205.406L2723.07,103.844L2662.39,103.844L2662.39,96.031L2723.07,96.031L2723.07,37.958L2730.62,37.958ZM2651.45,37.958L2651.45,205.406L2624.11,205.406L2624.11,37.958L2651.45,37.958Z" style="fill:rgb(0,0,255);fill-rule:nonzero;"/>
    </g>
    <g transform="matrix(1,0,0,1,-19.9291,139.908)">
        <path d="M3088.79,36.156L3094.52,36.156L3163.27,203.603L3133.84,203.603L3110.14,145.791L3087.22,145.791L3087.22,138.239L3107.02,138.239L3080.71,74.437L3054.15,138.239L3070.56,138.239L3070.56,145.791L3050.77,145.791L3026.55,203.603L3018.21,203.603L3042.43,145.791L3023.68,145.791L3023.68,138.239L3045.82,138.239L3088.79,36.156Z" style="fill:rgb(0,0,255);fill-rule:nonzero;"/>
    </g>
    <g transform="matrix(1,0,0,1,8.70541,141.523)">
        <path d="M3422.8,36.287L3450.14,36.287L3450.14,196.182L3504.57,196.182L3504.57,203.735L3422.8,203.735L3422.8,36.287Z" style="fill:rgb(0,0,255);fill-rule:nonzero;"/>
    </g>
    <g transform="matrix(1,0,0,1,-2.05156,138.22)">
        <path d="M3915.08,89.406L3915.08,97.479L3869.76,97.479L3869.76,89.406L3915.08,89.406ZM3921.33,37.844L3921.33,45.656L3858.83,45.656L3858.83,205.292L3831.48,205.292L3831.48,37.844L3921.33,37.844Z" style="fill:rgb(0,0,255);fill-rule:nonzero;"/>
    </g>
    <g transform="matrix(1,0,0,1,5.6545,130.909)">
        <path d="M4305.56,98.019L4305.56,105.831L4263.63,105.831L4263.63,98.019L4305.56,98.019ZM4314.41,45.154L4314.41,52.967L4252.69,52.967L4252.69,204.789L4314.41,204.789L4314.41,212.602L4225.35,212.602L4225.35,45.154L4314.41,45.154Z" style="fill:rgb(0,0,255);fill-rule:nonzero;"/>
    </g>
    <g transform="matrix(1,0,0,1,-4.80033,126.258)">
        <path d="M212.895,451.25L316.28,451.25L316.28,458.802L278.26,458.802L278.26,618.959L250.916,618.959L250.916,458.802L212.895,458.802L212.895,451.25Z" style="fill:rgb(0,0,255);fill-rule:nonzero;"/>
    </g>
    <g transform="matrix(1,0,0,1,10.4564,141.663)">
        <path d="M689.276,488.97L689.276,496.782L647.349,496.782L647.349,488.97L689.276,488.97ZM698.13,436.105L698.13,443.918L636.411,443.918L636.411,595.741L698.13,595.741L698.13,603.553L609.068,603.553L609.068,436.105L698.13,436.105Z" style="fill:rgb(0,0,255);fill-rule:nonzero;"/>
    </g>
    <g transform="matrix(1,0,0,1,8.90385,146.58)">
        <path d="M996.872,431.188L1103.64,530.667L1103.64,431.188L1111.19,431.188L1111.19,598.636L1103.64,598.636L1103.64,568.948L1004.42,475.719L1004.42,598.636L996.872,598.636L996.872,431.188Z" style="fill:rgb(0,0,255);fill-rule:nonzero;"/>
    </g>
    <g transform="matrix(1,0,0,1,359.078,132.023)">
        <path d="M1456.88,589.886C1453.23,587.108 1449.76,584.157 1446.46,581.032C1438.48,573.046 1432.31,563.844 1427.97,553.428C1423.63,542.837 1421.46,531.9 1421.46,520.615C1421.46,509.157 1423.63,498.219 1427.97,487.803C1432.31,477.212 1438.48,467.924 1446.46,459.938C1449.76,456.813 1453.23,453.862 1456.88,451.084L1456.88,589.886ZM1539.69,441.448C1550.28,445.789 1559.57,451.952 1567.56,459.938C1575.54,467.924 1581.7,477.212 1586.05,487.803C1590.39,498.219 1592.56,509.157 1592.56,520.615C1592.56,531.9 1590.39,542.837 1586.05,553.428C1581.7,563.844 1575.54,573.046 1567.56,581.032C1561.31,587.455 1554.19,592.664 1546.2,596.657L1564.95,610.98L1555.58,623.74L1528.75,603.428C1521.64,605.164 1514.43,606.032 1507.14,606.032C1493.25,606.032 1480.14,602.82 1467.82,596.396L1467.82,588.063C1480.14,595.181 1493.25,598.74 1507.14,598.74C1511.83,598.74 1516.43,598.306 1520.94,597.438L1513.91,591.969L1523.55,579.469L1539.43,591.709C1548.11,587.716 1555.75,582.421 1562.35,575.823C1569.64,568.705 1575.28,560.285 1579.28,550.563C1583.27,540.841 1585.26,530.858 1585.26,520.615C1585.26,510.198 1583.27,500.172 1579.28,490.537C1575.28,480.901 1569.64,472.438 1562.35,465.146C1555.06,457.855 1546.64,452.212 1537.09,448.219C1527.37,444.226 1517.38,442.23 1507.14,442.23C1493.25,442.23 1480.14,445.789 1467.82,452.907L1467.82,444.573C1480.14,438.15 1493.25,434.938 1507.14,434.938C1518.42,434.938 1529.28,437.108 1539.69,441.448Z" style="fill:rgb(0,0,255);fill-rule:nonzero;"/>
    </g>
    <g transform="matrix(1,0,0,1,386.662,137.665)">
        <path d="M1945.3,439.973L1945.3,531.901C1946.17,569.227 1934.28,593.446 1909.62,604.557C1904.59,606.814 1898.95,608.289 1892.7,608.984L1892.7,600.13C1897.9,599.609 1902.77,598.48 1907.28,596.744C1913.53,593.966 1918.74,590.234 1922.9,585.546C1927.07,580.859 1930.2,575.433 1932.28,569.27C1934.36,563.107 1935.75,557.161 1936.45,551.432C1937.14,545.703 1937.49,539.192 1937.49,531.901L1937.49,439.973L1945.3,439.973ZM1844,439.973L1844,548.046C1844,564.713 1848.16,577.734 1856.5,587.109C1860.14,591.102 1863.96,594.097 1867.96,596.093C1871.95,598.09 1876.55,599.348 1881.76,599.869L1881.76,609.244C1868.91,609.071 1857.15,606.553 1846.47,601.692C1835.8,596.831 1828.03,589.453 1823.16,579.557C1818.83,570.355 1816.65,559.591 1816.65,547.265L1816.65,439.973L1844,439.973Z" style="fill:rgb(0,0,255);fill-rule:nonzero;"/>
    </g>
    <g transform="matrix(1,0,0,1,383.607,142.139)">
        <path d="M2283.81,435.499L2289.54,435.499L2358.29,602.947L2328.86,602.947L2305.16,545.134L2282.24,545.134L2282.24,537.582L2302.04,537.582L2275.73,473.78L2249.17,537.582L2265.58,537.582L2265.58,545.134L2245.79,545.134L2221.57,602.947L2213.23,602.947L2237.45,545.134L2218.7,545.134L2218.7,537.582L2240.84,537.582L2283.81,435.499Z" style="fill:rgb(0,0,255);fill-rule:nonzero;"/>
    </g>
    <g transform="matrix(1,0,0,1,403.401,138.841)">
        <path d="M2611.16,438.81L2638.5,438.81L2638.5,606.258L2611.16,606.258L2611.16,438.81ZM2649.44,438.81C2660.73,438.636 2670.62,440.285 2679.13,443.758C2691.28,449.14 2701,457.256 2708.3,468.107C2715.59,478.957 2719.23,490.806 2719.23,503.653C2718.89,515.112 2715.98,525.702 2710.51,535.424C2705.04,545.146 2697.62,552.959 2688.24,558.862L2723.66,606.258L2707.77,606.258L2676.78,564.331C2663.42,566.935 2654.3,568.237 2649.44,568.237L2649.44,560.945C2659.51,561.119 2668.45,559.643 2676.26,556.518C2687.2,551.483 2695.84,544.278 2702.18,534.903C2708.51,525.528 2711.77,515.025 2711.94,503.393C2711.59,491.761 2708.16,481.171 2701.66,471.622C2695.14,462.074 2686.68,455.129 2676.26,450.789C2675.05,450.094 2673.79,449.53 2672.49,449.096C2671.19,448.662 2670.06,448.271 2669.1,447.924C2668.15,447.577 2666.98,447.317 2665.59,447.143C2664.2,446.969 2663.24,446.796 2662.72,446.622C2662.2,446.449 2661.12,446.362 2659.47,446.362C2657.82,446.362 2656.82,446.318 2656.47,446.232C2656.12,446.145 2654.95,446.145 2652.96,446.232C2650.96,446.318 2649.79,446.362 2649.44,446.362L2649.44,438.81Z" style="fill:rgb(0,0,255);fill-rule:nonzero;"/>
    </g>
    <g transform="matrix(1,0,0,1,389.17,137.481)">
        <path d="M3031.52,440.17L3134.91,440.17L3134.91,447.722L3096.89,447.722L3096.89,607.878L3069.54,607.878L3069.54,447.722L3031.52,447.722L3031.52,440.17Z" style="fill:rgb(0,0,255);fill-rule:nonzero;"/>
    </g>
    <g transform="matrix(1,0,0,1,421.484,134.6)">
        <path d="M3488.15,495.903L3488.15,503.716L3446.23,503.716L3446.23,495.903L3488.15,495.903ZM3497.01,443.038L3497.01,450.851L3435.29,450.851L3435.29,602.674L3497.01,602.674L3497.01,610.486L3407.95,610.486L3407.95,443.038L3497.01,443.038Z" style="fill:rgb(0,0,255);fill-rule:nonzero;"/>
    </g>
    <g transform="matrix(1,0,0,1,384.592,129.234)">
        <path d="M3834.69,448.677L3862.04,448.677L3862.04,616.125L3834.69,616.125L3834.69,448.677ZM3872.97,448.677C3884.26,448.503 3894.16,450.153 3902.66,453.625C3914.82,459.007 3924.54,467.123 3931.83,477.974C3939.12,488.824 3942.77,500.673 3942.77,513.521C3942.42,524.979 3939.51,535.569 3934.04,545.291C3928.57,555.014 3921.15,562.826 3911.78,568.729L3947.19,616.125L3931.31,616.125L3900.32,574.198C3886.95,576.802 3877.84,578.104 3872.97,578.104L3872.97,570.812C3883.04,570.986 3891.99,569.51 3899.8,566.385C3910.74,561.35 3919.37,554.146 3925.71,544.771C3932.05,535.396 3935.3,524.892 3935.47,513.26C3935.13,501.628 3931.7,491.038 3925.19,481.489C3918.68,471.941 3910.21,464.996 3899.8,460.656C3898.58,459.962 3897.32,459.397 3896.02,458.963C3894.72,458.529 3893.59,458.139 3892.64,457.791C3891.68,457.444 3890.51,457.184 3889.12,457.01C3887.73,456.837 3886.78,456.663 3886.26,456.489C3885.74,456.316 3884.65,456.229 3883,456.229C3881.35,456.229 3880.35,456.186 3880.01,456.099C3879.66,456.012 3878.49,456.012 3876.49,456.099C3874.49,456.186 3873.32,456.229 3872.97,456.229L3872.97,448.677Z" style="fill:rgb(0,0,255);fill-rule:nonzero;"/>
    </g>
    <g transform="matrix(1,0,0,1,-19.9069,138.927)">
        <path d="M1556.82,438.711L1514.37,563.451L1508.64,551.993L1548.22,438.711L1556.82,438.711ZM1442.49,438.711L1508.64,577.774L1508.64,606.159L1481.55,606.159L1481.55,581.42L1412.02,438.711L1442.49,438.711Z" style="fill:rgb(0,0,255);fill-rule:nonzero;"/>
    </g>
    <g transform="matrix(1,0,0,1,-6.21734,129.767)">
        <path d="M238.921,849.446L247.776,849.446C258.887,849.446 269.607,851.573 279.937,855.826C290.267,860.08 299.338,866.113 307.151,873.925C315.137,881.738 321.213,890.766 325.38,901.009C329.72,911.252 331.89,922.016 331.89,933.3C331.89,944.411 329.72,955.088 325.38,965.332C321.213,975.575 315.137,984.602 307.151,992.415C299.338,1000.23 290.267,1006.26 279.937,1010.51C269.607,1014.77 258.887,1016.89 247.776,1016.89L238.921,1016.89L238.921,1008.82L247.776,1008.82C257.845,1008.82 267.567,1006.87 276.942,1002.96C286.317,999.055 294.564,993.587 301.682,986.555C308.8,979.524 314.312,971.365 318.218,962.076C322.125,952.788 324.078,943.196 324.078,933.3C324.078,923.231 322.125,913.552 318.218,904.264C314.312,894.976 308.8,886.816 301.682,879.785C294.564,872.753 286.317,867.285 276.942,863.378C267.567,859.472 257.845,857.519 247.776,857.519L238.921,857.519L238.921,849.446ZM200.119,849.446L227.984,849.446L227.984,1016.89L200.119,1016.89L200.119,849.446Z" style="fill:rgb(0,0,255);fill-rule:nonzero;"/>
    </g>
    <g transform="matrix(1,0,0,1,11.0732,132.555)">
        <path d="M601.289,846.397L704.675,846.397L704.675,853.95L666.654,853.95L666.654,1014.11L639.31,1014.11L639.31,853.95L601.289,853.95L601.289,846.397Z" style="fill:rgb(0,0,255);fill-rule:nonzero;"/>
    </g>
    <g transform="matrix(1,0,0,1,-39.7371,140.405)">
        <path d="M1093.04,838.809L1113.35,891.673L1133.4,838.809L1142.26,838.809L1117.52,902.09L1143.3,964.069L1192.78,838.809L1201.37,838.809L1132.62,1009.9L1132.36,1009.38L1063.35,838.809L1093.04,838.809ZM1033.66,838.809L1083.66,964.069L1093.04,941.673L1096.94,951.829L1073.25,1009.9L1003.98,838.809L1033.66,838.809Z" style="fill:rgb(0,0,255);fill-rule:nonzero;"/>
    </g>
    <g transform="matrix(1,0,0,1,18.1108,139.388)">
        <path d="M1482.08,892.689L1482.08,900.502L1440.15,900.502L1440.15,892.689L1482.08,892.689ZM1490.93,839.825L1490.93,847.637L1429.21,847.637L1429.21,999.46L1490.93,999.46L1490.93,1007.27L1401.87,1007.27L1401.87,839.825L1490.93,839.825Z" style="fill:rgb(0,0,255);fill-rule:nonzero;"/>
    </g>
    <g transform="matrix(1,0,0,1,0.863906,126.718)">
        <path d="M1805.77,852.495L1912.54,951.974L1912.54,852.495L1920.09,852.495L1920.09,1019.94L1912.54,1019.94L1912.54,990.255L1813.32,897.026L1813.32,1019.94L1805.77,1019.94L1805.77,852.495Z" style="fill:rgb(0,0,255);fill-rule:nonzero;"/>
    </g>
    <g transform="matrix(1,0,0,1,16.2411,137.831)">
        <path d="M2199.73,841.382L2303.11,841.382L2303.11,848.934L2265.09,848.934L2265.09,1009.09L2237.75,1009.09L2237.75,848.934L2199.73,848.934L2199.73,841.382Z" style="fill:rgb(0,0,255);fill-rule:nonzero;"/>
    </g>
    <g transform="matrix(1,0,0,1,-6.91821,125.981)">
        <path d="M2748.55,853.232L2706.1,977.972L2700.37,966.514L2739.96,853.232L2748.55,853.232ZM2634.23,853.232L2700.37,992.295L2700.37,1020.68L2673.29,1020.68L2673.29,995.941L2603.76,853.232L2634.23,853.232Z" style="fill:rgb(0,0,255);fill-rule:nonzero;"/>
    </g>
    <g transform="matrix(1,0,0,1,4.50262,136.143)">
        <path d="M3104.98,894.633L3104.98,902.706L3059.67,902.706L3059.67,894.633L3104.98,894.633ZM3111.23,843.07L3111.23,850.883L3048.73,850.883L3048.73,1010.52L3021.39,1010.52L3021.39,843.07L3111.23,843.07Z" style="fill:rgb(0,0,255);fill-rule:nonzero;"/>
    </g>
    <g transform="matrix(1,0,0,1,25.8223,138.044)">
        <rect x="3432.89" y="841.169" width="27.344" height="167.448" style="fill:rgb(0,0,255);fill-rule:nonzero;"/>
    </g>
    <g transform="matrix(1,0,0,1,-26.5545,144.269)">
        <path d="M3969.53,833.121L3921.09,953.433L3917.18,943.538L3960.93,833.121L3969.53,833.121ZM3861.19,833.121L3915.1,968.017L3900.51,1004.22L3831.51,833.121L3861.19,833.121Z" style="fill:rgb(0,0,255);fill-rule:nonzero;"/>
    </g>
    <g transform="matrix(1,0,0,1,17.0788,142.453)">
        <path d="M4294.13,889.624L4294.13,897.437L4252.21,897.437L4252.21,889.624L4294.13,889.624ZM4302.99,836.76L4302.99,844.572L4241.27,844.572L4241.27,996.395L4302.99,996.395L4302.99,1004.21L4213.93,1004.21L4213.93,836.76L4302.99,836.76Z" style="fill:rgb(0,0,255);fill-rule:nonzero;"/>
    </g>
    <g transform="matrix(1,0,0,1,0.526651,145.866)">
        <path d="M207.568,1234.79L310.953,1234.79L310.953,1242.34L272.933,1242.34L272.933,1402.5L245.589,1402.5L245.589,1242.34L207.568,1242.34L207.568,1234.79Z" style="fill:rgb(0,0,255);fill-rule:nonzero;"/>
    </g>
    <g transform="matrix(1,0,0,1,-26.3572,130.921)">
        <path d="M687.85,1249.74C699.134,1249.74 709.985,1251.91 720.402,1256.25C730.992,1260.59 740.28,1266.75 748.266,1274.74C756.252,1282.72 762.416,1292.01 766.756,1302.6C771.096,1313.02 773.266,1323.95 773.266,1335.41C773.266,1346.7 771.096,1357.64 766.756,1368.23C762.416,1378.64 756.252,1387.84 748.266,1395.83C740.28,1403.82 730.992,1410.07 720.402,1414.58C709.985,1418.75 699.134,1420.83 687.85,1420.83C673.961,1420.83 660.853,1417.62 648.527,1411.19L648.527,1402.86C660.853,1409.98 673.961,1413.54 687.85,1413.54C698.093,1413.54 708.075,1411.54 717.798,1407.55C727.346,1403.56 735.766,1397.91 743.058,1390.62C750.35,1383.5 755.992,1375.08 759.985,1365.36C763.978,1355.64 765.975,1345.66 765.975,1335.41C765.975,1325 763.978,1314.97 759.985,1305.34C755.992,1295.7 750.35,1287.24 743.058,1279.94C735.766,1272.65 727.346,1267.01 717.798,1263.02C708.075,1259.03 698.093,1257.03 687.85,1257.03C673.961,1257.03 660.853,1260.59 648.527,1267.7L648.527,1259.37C660.853,1252.95 673.961,1249.74 687.85,1249.74ZM637.589,1265.88L637.589,1404.68C633.943,1401.91 630.471,1398.95 627.173,1395.83C619.186,1387.84 613.023,1378.64 608.683,1368.23C604.343,1357.64 602.173,1346.7 602.173,1335.41C602.173,1323.95 604.343,1313.02 608.683,1302.6C613.023,1292.01 619.186,1282.72 627.173,1274.74C630.471,1271.61 633.943,1268.66 637.589,1265.88Z" style="fill:rgb(0,0,255);fill-rule:nonzero;"/>
    </g>
    <g transform="matrix(1,0,0,1,-3.85123,143.149)">
        <path d="M1017.05,1239.33L1044.39,1239.33L1044.39,1406.78L1017.05,1406.78L1017.05,1239.33ZM1047.78,1239.33L1051.42,1239.33C1060.1,1239.33 1068.35,1241.07 1076.16,1244.54C1084.32,1248.01 1091.35,1252.87 1097.26,1259.12C1103.51,1265.2 1108.28,1272.4 1111.58,1280.74C1114.88,1288.72 1116.53,1297.14 1116.53,1306C1116.53,1314.85 1114.88,1323.36 1111.58,1331.52C1108.28,1339.68 1103.51,1346.88 1097.26,1353.13C1091.35,1359.38 1084.32,1364.25 1076.16,1367.72C1068.35,1371.02 1060.1,1372.66 1051.42,1372.66L1047.78,1372.66L1047.78,1364.85L1051.42,1364.85C1058.89,1364.85 1066.18,1363.29 1073.3,1360.16C1080.42,1357.21 1086.58,1353.05 1091.79,1347.66C1097.17,1342.11 1101.34,1335.77 1104.29,1328.65C1107.24,1321.36 1108.71,1313.85 1108.71,1306.13C1108.71,1298.4 1107.24,1290.98 1104.29,1283.86C1101.34,1276.4 1097.21,1269.97 1091.92,1264.59C1086.62,1259.21 1080.42,1255.04 1073.3,1252.09C1066.18,1248.97 1058.89,1247.4 1051.42,1247.4L1047.78,1247.4L1047.78,1239.33Z" style="fill:rgb(0,0,255);fill-rule:nonzero;"/>
    </g>
    <g transform="matrix(1,0,0,1,-16.9548,137.146)">
        <path d="M1479.38,1243.51L1485.11,1243.51L1553.86,1410.96L1524.43,1410.96L1500.74,1353.15L1477.82,1353.15L1477.82,1345.6L1497.61,1345.6L1471.31,1281.79L1444.75,1345.6L1461.15,1345.6L1461.15,1353.15L1441.36,1353.15L1417.14,1410.96L1408.81,1410.96L1433.03,1353.15L1414.28,1353.15L1414.28,1345.6L1436.41,1345.6L1479.38,1243.51Z" style="fill:rgb(0,0,255);fill-rule:nonzero;"/>
    </g>
    <g transform="matrix(1,0,0,1,22.3715,134.712)">
        <path d="M1875.04,1248.05L1871.4,1254.56C1864.63,1251.44 1856.9,1250.66 1848.22,1252.22C1834.16,1254.48 1825.39,1261.42 1821.92,1273.05C1820.53,1278.61 1820.7,1283.12 1822.44,1286.6C1824.17,1290.07 1827.47,1293.97 1832.34,1298.31L1875.3,1325.66C1885.2,1332.6 1891.71,1339.11 1894.84,1345.19C1896.92,1349.01 1898.13,1354.13 1898.48,1360.55C1898.83,1366.8 1898.31,1372.45 1896.92,1377.48C1893.62,1390.15 1885.98,1399.96 1874,1406.91C1863.06,1412.81 1852.3,1415.59 1841.71,1415.24C1829.04,1414.89 1818.36,1412.2 1809.68,1407.17C1803.08,1403 1797.96,1397.88 1794.31,1391.8C1790.67,1385.73 1788.85,1379.3 1788.85,1372.53L1796.4,1372.01C1797.09,1385.03 1802.73,1394.58 1813.32,1400.66C1821.31,1405.17 1830.86,1407.6 1841.97,1407.95C1852.39,1408.12 1861.29,1405.26 1868.66,1399.36C1876.04,1393.45 1879.73,1385.55 1879.73,1375.66C1879.73,1371.66 1877.91,1367.15 1874.26,1362.12C1871.14,1357.6 1866.8,1353.7 1861.24,1350.4L1816.97,1321.75C1810.2,1315.5 1805.95,1308.82 1804.21,1301.7C1801.43,1286.42 1805.69,1272.53 1816.97,1260.03C1823.39,1252.91 1832.29,1248.14 1843.66,1245.71C1855.04,1243.28 1865.5,1244.06 1875.04,1248.05Z" style="fill:rgb(0,0,255);fill-rule:nonzero;"/>
    </g>
    <g transform="matrix(1,0,0,1,20.5355,140.131)">
        <path d="M2195.43,1240.27L2298.82,1240.27L2298.82,1247.82L2260.8,1247.82L2260.8,1407.98L2233.45,1407.98L2233.45,1247.82L2195.43,1247.82L2195.43,1240.27Z" style="fill:rgb(0,0,255);fill-rule:nonzero;"/>
    </g>
    <g transform="matrix(1,0,0,1,10.939,139.493)">
        <path d="M2693.97,1295.98L2693.97,1303.8L2652.05,1303.8L2652.05,1295.98L2693.97,1295.98ZM2702.83,1243.12L2702.83,1250.93L2641.11,1250.93L2641.11,1402.75L2702.83,1402.75L2702.83,1410.57L2613.77,1410.57L2613.77,1243.12L2702.83,1243.12Z" style="fill:rgb(0,0,255);fill-rule:nonzero;"/>
    </g>
    <g transform="matrix(1,0,0,1,5.0599,132.425)">
        <path d="M3104.42,1299.93L3104.42,1308L3059.11,1308L3059.11,1299.93L3104.42,1299.93ZM3110.67,1248.36L3110.67,1256.18L3048.17,1256.18L3048.17,1415.81L3020.83,1415.81L3020.83,1248.36L3110.67,1248.36Z" style="fill:rgb(0,0,255);fill-rule:nonzero;"/>
    </g>
    <g transform="matrix(1,0,0,1,-22.0294,133.113)">
        <path d="M3494.55,1245.85C3505.83,1245.85 3516.68,1248.02 3527.1,1252.36C3537.69,1256.7 3546.98,1262.87 3554.96,1270.85C3562.95,1278.84 3569.11,1288.13 3573.45,1298.72C3577.79,1309.13 3579.96,1320.07 3579.96,1331.53C3579.96,1342.81 3577.79,1353.75 3573.45,1364.34C3569.11,1374.76 3562.95,1383.96 3554.96,1391.95C3546.98,1399.93 3537.69,1406.18 3527.1,1410.7C3516.68,1414.86 3505.83,1416.95 3494.55,1416.95C3480.66,1416.95 3467.55,1413.73 3455.22,1407.31L3455.22,1398.98C3467.55,1406.1 3480.66,1409.65 3494.55,1409.65C3504.79,1409.65 3514.77,1407.66 3524.49,1403.66C3534.04,1399.67 3542.46,1394.03 3549.75,1386.74C3557.05,1379.62 3562.69,1371.2 3566.68,1361.48C3570.67,1351.76 3572.67,1341.77 3572.67,1331.53C3572.67,1321.11 3570.67,1311.09 3566.68,1301.45C3562.69,1291.82 3557.05,1283.35 3549.75,1276.06C3542.46,1268.77 3534.04,1263.13 3524.49,1259.13C3514.77,1255.14 3504.79,1253.14 3494.55,1253.14C3480.66,1253.14 3467.55,1256.7 3455.22,1263.82L3455.22,1255.49C3467.55,1249.06 3480.66,1245.85 3494.55,1245.85ZM3444.28,1262L3444.28,1400.8C3440.64,1398.02 3437.17,1395.07 3433.87,1391.95C3425.88,1383.96 3419.72,1374.76 3415.38,1364.34C3411.04,1353.75 3408.87,1342.81 3408.87,1331.53C3408.87,1320.07 3411.04,1309.13 3415.38,1298.72C3419.72,1288.13 3425.88,1278.84 3433.87,1270.85C3437.17,1267.73 3440.64,1264.78 3444.28,1262Z" style="fill:rgb(0,0,255);fill-rule:nonzero;"/>
    </g>
    <g transform="matrix(1,0,0,1,-13.8685,128.907)">
        <path d="M3952.13,1250.97L3952.13,1342.9C3953,1380.22 3941.11,1404.44 3916.45,1415.55C3911.42,1417.81 3905.78,1419.29 3899.53,1419.98L3899.53,1411.13C3904.73,1410.61 3909.6,1409.48 3914.11,1407.74C3920.36,1404.96 3925.57,1401.23 3929.73,1396.54C3933.9,1391.86 3937.03,1386.43 3939.11,1380.27C3941.19,1374.1 3942.58,1368.16 3943.28,1362.43C3943.97,1356.7 3944.32,1350.19 3944.32,1342.9L3944.32,1250.97L3952.13,1250.97ZM3850.83,1250.97L3850.83,1359.04C3850.83,1375.71 3854.99,1388.73 3863.33,1398.11C3866.97,1402.1 3870.79,1405.09 3874.79,1407.09C3878.78,1409.09 3883.38,1410.34 3888.59,1410.87L3888.59,1420.24C3875.74,1420.07 3863.98,1417.55 3853.3,1412.69C3842.62,1407.83 3834.86,1400.45 3829.99,1390.55C3825.65,1381.35 3823.48,1370.59 3823.48,1358.26L3823.48,1250.97L3850.83,1250.97Z" style="fill:rgb(0,0,255);fill-rule:nonzero;"/>
    </g>
    <g transform="matrix(1,0,0,1,10.4248,139.004)">
        <path d="M4208.86,1240.87L4236.2,1240.87L4236.2,1408.32L4208.86,1408.32L4208.86,1240.87ZM4247.14,1240.87C4258.43,1240.7 4268.32,1242.35 4276.83,1245.82C4288.98,1251.2 4298.7,1259.32 4306,1270.17C4313.29,1281.02 4316.93,1292.87 4316.93,1305.72C4316.59,1317.17 4313.68,1327.77 4308.21,1337.49C4302.74,1347.21 4295.32,1355.02 4285.94,1360.92L4321.36,1408.32L4305.48,1408.32L4274.49,1366.39C4261.12,1369 4252,1370.3 4247.14,1370.3L4247.14,1363.01C4257.21,1363.18 4266.15,1361.71 4273.97,1358.58C4284.9,1353.55 4293.54,1346.34 4299.88,1336.97C4306.21,1327.59 4309.47,1317.09 4309.64,1305.46C4309.3,1293.82 4305.87,1283.23 4299.36,1273.68C4292.85,1264.14 4284.38,1257.19 4273.97,1252.85C4272.75,1252.16 4271.49,1251.59 4270.19,1251.16C4268.89,1250.73 4267.76,1250.33 4266.8,1249.99C4265.85,1249.64 4264.68,1249.38 4263.29,1249.21C4261.9,1249.03 4260.94,1248.86 4260.42,1248.68C4259.9,1248.51 4258.82,1248.42 4257.17,1248.42C4255.52,1248.42 4254.52,1248.38 4254.17,1248.3C4253.83,1248.21 4252.65,1248.21 4250.66,1248.3C4248.66,1248.38 4247.49,1248.42 4247.14,1248.42L4247.14,1240.87Z" style="fill:rgb(0,0,255);fill-rule:nonzero;"/>
    </g>
    <g transform="matrix(1,0,0,1,17.844,147.752)">
        <path d="M280.615,1686.17L280.615,1694.25L235.303,1694.25L235.303,1686.17L280.615,1686.17ZM286.865,1634.61L286.865,1642.42L224.365,1642.42L224.365,1802.06L197.021,1802.06L197.021,1634.61L286.865,1634.61Z" style="fill:rgb(0,0,255);fill-rule:nonzero;"/>
    </g>
    <g transform="matrix(1,0,0,1,48.4736,112.119)">
        <rect x="599.217" y="1670.24" width="27.344" height="167.448" style="fill:rgb(0,0,255);fill-rule:nonzero;"/>
    </g>
    <g transform="matrix(1,0,0,1,-7.72214,138.878)">
        <path d="M1139.67,1639.84L1091.23,1760.15L1087.33,1750.26L1131.08,1639.84L1139.67,1639.84ZM1031.34,1639.84L1085.24,1774.74L1070.66,1810.93L1001.65,1639.84L1031.34,1639.84Z" style="fill:rgb(0,0,255);fill-rule:nonzero;"/>
    </g>
    <g transform="matrix(1,0,0,1,14.3738,140.688)">
        <path d="M1485.82,1694.54L1485.82,1702.35L1443.89,1702.35L1443.89,1694.54L1485.82,1694.54ZM1494.67,1641.67L1494.67,1649.49L1432.95,1649.49L1432.95,1801.31L1494.67,1801.31L1494.67,1809.12L1405.61,1809.12L1405.61,1641.67L1494.67,1641.67Z" style="fill:rgb(0,0,255);fill-rule:nonzero;"/>
    </g>
    <g transform="matrix(1,0,0,1,-0.955191,135.754)">
        <path d="M1815.35,1646.61L1918.74,1646.61L1918.74,1654.16L1880.71,1654.16L1880.71,1814.32L1853.37,1814.32L1853.37,1654.16L1815.35,1654.16L1815.35,1646.61Z" style="fill:rgb(0,0,255);fill-rule:nonzero;"/>
    </g>
    <g transform="matrix(1,0,0,1,-48.7447,140.508)">
        <path d="M2306.77,1641.86L2327.08,1694.72L2347.14,1641.86L2355.99,1641.86L2331.25,1705.14L2357.03,1767.12L2406.51,1641.86L2415.1,1641.86L2346.35,1812.95L2346.09,1812.43L2277.08,1641.86L2306.77,1641.86ZM2247.4,1641.86L2297.4,1767.12L2306.77,1744.72L2310.68,1754.88L2286.98,1812.95L2217.71,1641.86L2247.4,1641.86Z" style="fill:rgb(0,0,255);fill-rule:nonzero;"/>
    </g>
    <g transform="matrix(1,0,0,1,-27.0663,128.85)">
        <path d="M2696.43,1649.87C2707.72,1649.87 2718.57,1652.04 2728.99,1656.38C2739.58,1660.72 2748.86,1666.88 2756.85,1674.87C2764.84,1682.85 2771,1692.14 2775.34,1702.73C2779.68,1713.15 2781.85,1724.09 2781.85,1735.54C2781.85,1746.83 2779.68,1757.77 2775.34,1768.36C2771,1778.77 2764.84,1787.97 2756.85,1795.96C2748.86,1803.95 2739.58,1810.2 2728.99,1814.71C2718.57,1818.88 2707.72,1820.96 2696.43,1820.96C2682.54,1820.96 2669.44,1817.75 2657.11,1811.33L2657.11,1802.99C2669.44,1810.11 2682.54,1813.67 2696.43,1813.67C2706.68,1813.67 2716.66,1811.67 2726.38,1807.68C2735.93,1803.69 2744.35,1798.04 2751.64,1790.75C2758.93,1783.63 2764.58,1775.21 2768.57,1765.49C2772.56,1755.77 2774.56,1745.79 2774.56,1735.54C2774.56,1725.13 2772.56,1715.1 2768.57,1705.47C2764.58,1695.83 2758.93,1687.37 2751.64,1680.08C2744.35,1672.78 2735.93,1667.14 2726.38,1663.15C2716.66,1659.15 2706.68,1657.16 2696.43,1657.16C2682.54,1657.16 2669.44,1660.72 2657.11,1667.84L2657.11,1659.5C2669.44,1653.08 2682.54,1649.87 2696.43,1649.87ZM2646.17,1666.01L2646.17,1804.81C2642.53,1802.04 2639.05,1799.09 2635.76,1795.96C2627.77,1787.97 2621.61,1778.77 2617.27,1768.36C2612.93,1757.77 2610.76,1746.83 2610.76,1735.54C2610.76,1724.09 2612.93,1713.15 2617.27,1702.73C2621.61,1692.14 2627.77,1682.85 2635.76,1674.87C2639.05,1671.74 2642.53,1668.79 2646.17,1666.01Z" style="fill:rgb(0,0,255);fill-rule:nonzero;"/>
    </g>
    <g transform="matrix(1,0,0,1,-7.52389,138.508)">
        <path d="M3021.17,1643.86L3127.94,1743.33L3127.94,1643.86L3135.5,1643.86L3135.5,1811.3L3127.94,1811.3L3127.94,1781.62L3028.73,1688.39L3028.73,1811.3L3021.17,1811.3L3021.17,1643.86Z" style="fill:rgb(0,0,255);fill-rule:nonzero;"/>
    </g>
    <g transform="matrix(1,0,0,1,64.7338,146.064)">
        <rect x="3393.98" y="1636.3" width="27.344" height="167.448" style="fill:rgb(0,0,255);fill-rule:nonzero;"/>
    </g>
    <g transform="matrix(1,0,0,1,2.74603,142.36)">
        <path d="M3821.24,1640L3928.01,1739.48L3928.01,1640L3935.56,1640L3935.56,1807.45L3928.01,1807.45L3928.01,1777.76L3828.79,1684.53L3828.79,1807.45L3821.24,1807.45L3821.24,1640Z" style="fill:rgb(0,0,255);fill-rule:nonzero;"/>
    </g>
    <g transform="matrix(1,0,0,1,25.8315,143.524)">
        <path d="M4285.38,1691.7L4285.38,1699.52L4243.45,1699.52L4243.45,1691.7L4285.38,1691.7ZM4294.23,1638.84L4294.23,1646.65L4232.52,1646.65L4232.52,1798.47L4294.23,1798.47L4294.23,1806.29L4205.17,1806.29L4205.17,1638.84L4294.23,1638.84Z" style="fill:rgb(0,0,255);fill-rule:nonzero;"/>
    </g>
    <g transform="matrix(1,0,0,1,0.543042,140.052)">
        <path d="M207.552,2043.76L310.937,2043.76L310.937,2051.31L272.916,2051.31L272.916,2211.46L245.572,2211.46L245.572,2051.31L207.552,2051.31L207.552,2043.76Z" style="fill:rgb(0,0,255);fill-rule:nonzero;"/>
    </g>
    <g transform="matrix(1,0,0,1,1.89146,140.954)">
        <path d="M712.726,2042.85L712.726,2210.3L705.174,2210.3L705.174,2108.74L644.497,2108.74L644.497,2100.93L705.174,2100.93L705.174,2042.85L712.726,2042.85ZM633.559,2042.85L633.559,2210.3L606.216,2210.3L606.216,2042.85L633.559,2042.85Z" style="fill:rgb(0,0,255);fill-rule:nonzero;"/>
    </g>
    <g transform="matrix(1,0,0,1,9.55368,137.887)">
        <path d="M2206.41,2046.18L2309.8,2046.18L2309.8,2053.73L2271.78,2053.73L2271.78,2213.89L2244.44,2213.89L2244.44,2053.73L2206.41,2053.73L2206.41,2046.18Z" style="fill:rgb(0,0,255);fill-rule:nonzero;"/>
    </g>
    <g transform="matrix(1,0,0,1,-40.1536,135.802)">
        <path d="M2699.75,2046.31L2720.07,2099.18L2740.12,2046.31L2748.97,2046.31L2724.23,2109.59L2750.01,2171.57L2799.49,2046.31L2808.09,2046.31L2739.34,2217.41L2739.08,2216.89L2670.07,2046.31L2699.75,2046.31ZM2640.38,2046.31L2690.38,2171.57L2699.75,2149.18L2703.66,2159.33L2679.96,2217.41L2610.69,2046.31L2640.38,2046.31Z" style="fill:rgb(0,0,255);fill-rule:nonzero;"/>
    </g>
    <g transform="matrix(1,0,0,1,3.71311,144.903)">
        <path d="M3102.78,2091.9L3102.78,2099.71L3060.85,2099.71L3060.85,2091.9L3102.78,2091.9ZM3111.63,2039.04L3111.63,2046.85L3049.91,2046.85L3049.91,2198.67L3111.63,2198.67L3111.63,2206.48L3022.57,2206.48L3022.57,2039.04L3111.63,2039.04Z" style="fill:rgb(0,0,255);fill-rule:nonzero;"/>
    </g>
    <g transform="matrix(1,0,0,1,12.5408,129.528)">
        <path d="M3418.96,2054.41L3446.3,2054.41L3446.3,2214.3L3500.73,2214.3L3500.73,2221.86L3418.96,2221.86L3418.96,2054.41Z" style="fill:rgb(0,0,255);fill-rule:nonzero;"/>
    </g>
    <g transform="matrix(1,0,0,1,5.84876,145.787)">
        <path d="M1000.84,2038.28L1028.18,2038.28L1028.18,2205.73L1000.84,2205.73L1000.84,2038.28ZM1039.12,2038.28C1050.4,2038.11 1060.3,2039.76 1068.81,2043.23C1080.96,2048.61 1090.68,2056.73 1097.97,2067.58C1105.27,2078.43 1108.91,2090.28 1108.91,2103.12C1108.56,2114.58 1105.66,2125.17 1100.19,2134.89C1094.72,2144.62 1087.3,2152.43 1077.92,2158.33L1113.34,2205.73L1097.45,2205.73L1066.46,2163.8C1053.1,2166.41 1043.98,2167.71 1039.12,2167.71L1039.12,2160.42C1049.19,2160.59 1058.13,2159.11 1065.94,2155.99C1076.88,2150.95 1085.52,2143.75 1091.85,2134.37C1098.19,2125 1101.45,2114.5 1101.62,2102.86C1101.27,2091.23 1097.84,2080.64 1091.33,2071.09C1084.82,2061.55 1076.36,2054.6 1065.94,2050.26C1064.73,2049.57 1063.47,2049 1062.17,2048.57C1060.86,2048.13 1059.74,2047.74 1058.78,2047.39C1057.83,2047.05 1056.65,2046.79 1055.27,2046.61C1053.88,2046.44 1052.92,2046.27 1052.4,2046.09C1051.88,2045.92 1050.8,2045.83 1049.15,2045.83C1047.5,2045.83 1046.5,2045.79 1046.15,2045.7C1045.8,2045.62 1044.63,2045.62 1042.63,2045.7C1040.64,2045.79 1039.47,2045.83 1039.12,2045.83L1039.12,2038.28Z" style="fill:rgb(0,0,255);fill-rule:nonzero;"/>
    </g>
    <g transform="matrix(1,0,0,1,-18.6863,142.82)">
        <path d="M1518.88,2094.11L1518.88,2101.92L1476.95,2101.92L1476.95,2094.11L1518.88,2094.11ZM1527.73,2041.25L1527.73,2049.06L1466.01,2049.06L1466.01,2200.88L1527.73,2200.88L1527.73,2208.7L1438.67,2208.7L1438.67,2041.25L1527.73,2041.25Z" style="fill:rgb(0,0,255);fill-rule:nonzero;"/>
    </g>
    <g transform="matrix(1,0,0,1,5.19738,140.345)">
        <path d="M1896.57,2096.59L1896.57,2104.4L1854.64,2104.4L1854.64,2096.59L1896.57,2096.59ZM1905.42,2043.72L1905.42,2051.53L1843.7,2051.53L1843.7,2203.36L1905.42,2203.36L1905.42,2211.17L1816.36,2211.17L1816.36,2043.72L1905.42,2043.72Z" style="fill:rgb(0,0,255);fill-rule:nonzero;"/>
    </g>
    <g transform="matrix(1,0,0,1,-9.59007,130.479)">
        <path d="M3952.56,2053.46L3904.12,2173.77L3900.22,2163.88L3943.97,2053.46L3952.56,2053.46ZM3844.23,2053.46L3898.13,2188.35L3883.55,2224.55L3814.54,2053.46L3844.23,2053.46Z" style="fill:rgb(0,0,255);fill-rule:nonzero;"/>
    </g>
    <g transform="matrix(1,0,0,1,26.3724,135.081)">
        <path d="M4284.84,2099.9L4284.84,2107.71L4242.91,2107.71L4242.91,2099.9L4284.84,2099.9ZM4293.69,2047.03L4293.69,2054.85L4231.98,2054.85L4231.98,2206.67L4293.69,2206.67L4293.69,2214.48L4204.63,2214.48L4204.63,2047.03L4293.69,2047.03Z" style="fill:rgb(0,0,255);fill-rule:nonzero;"/>
    </g>
    <g transform="matrix(1,0,0,1,-16.6076,150.068)">
        <path d="M217.28,2435.44L244.624,2435.44L244.624,2602.89L217.28,2602.89L217.28,2435.44ZM255.562,2435.44L276.916,2435.44C283.86,2435.44 290.284,2437.22 296.187,2440.78C302.089,2444.34 306.734,2449.12 310.119,2455.11C313.504,2461.1 315.197,2467.65 315.197,2474.77C315.197,2484.14 312.246,2492.47 306.343,2499.77C311.378,2502.55 315.892,2505.93 319.885,2509.92C324.919,2514.96 328.782,2520.82 331.473,2527.5C334.164,2534.18 335.51,2541.17 335.51,2548.47C335.51,2555.58 334.164,2562.48 331.473,2569.17C328.782,2575.85 324.919,2581.8 319.885,2587.01C315.023,2592.04 309.294,2595.95 302.697,2598.72C296.1,2601.5 289.242,2602.89 282.124,2602.89L255.562,2602.89L255.562,2595.34L282.124,2595.34C288.374,2595.34 294.277,2594.12 299.832,2591.69C305.562,2589.44 310.553,2586.1 314.806,2581.67C319.06,2577.24 322.402,2572.16 324.832,2566.43C327.089,2560.7 328.218,2554.72 328.218,2548.47C328.218,2542.22 327.089,2536.22 324.832,2530.5C322.402,2524.59 319.017,2519.47 314.676,2515.13C310.162,2510.44 304.954,2506.97 299.051,2504.72C293.322,2502.11 287.68,2500.81 282.124,2500.81L255.562,2500.81L255.562,2492.74L282.385,2492.74C286.898,2492.74 292.541,2494.12 299.312,2496.9C305.041,2490.65 307.905,2483.27 307.905,2474.77C307.905,2466.09 304.867,2458.62 298.791,2452.37C292.714,2446.12 285.423,2443 276.916,2443L255.562,2443L255.562,2435.44Z" style="fill:rgb(0,0,255);fill-rule:nonzero;"/>
    </g>
    <g transform="matrix(1,0,0,1,-7.56187,146.249)">
        <path d="M704.601,2492.13L704.601,2499.94L662.674,2499.94L662.674,2492.13L704.601,2492.13ZM713.455,2439.26L713.455,2447.08L651.737,2447.08L651.737,2598.9L713.455,2598.9L713.455,2606.71L624.393,2606.71L624.393,2439.26L713.455,2439.26Z" style="fill:rgb(0,0,255);fill-rule:nonzero;"/>
    </g>
    <g transform="matrix(1,0,0,1,8.13356,135.448)">
        <path d="M1013.92,2450.06L1041.26,2450.06L1041.26,2609.96L1095.69,2609.96L1095.69,2617.51L1013.92,2617.51L1013.92,2450.06Z" style="fill:rgb(0,0,255);fill-rule:nonzero;"/>
    </g>
    <g transform="matrix(1,0,0,1,13.1936,139.201)">
        <path d="M1487,2499.18L1487,2506.99L1445.07,2506.99L1445.07,2499.18L1487,2499.18ZM1495.85,2446.31L1495.85,2454.12L1434.13,2454.12L1434.13,2605.95L1495.85,2605.95L1495.85,2613.76L1406.79,2613.76L1406.79,2446.31L1495.85,2446.31Z" style="fill:rgb(0,0,255);fill-rule:nonzero;"/>
    </g>
    <g transform="matrix(1,0,0,1,-10.3234,138.988)">
        <path d="M1945.42,2446.52L1896.98,2566.84L1893.08,2556.94L1936.83,2446.52L1945.42,2446.52ZM1837.09,2446.52L1890.99,2581.42L1876.41,2617.62L1807.4,2446.52L1837.09,2446.52Z" style="fill:rgb(0,0,255);fill-rule:nonzero;"/>
    </g>
    <g transform="matrix(1,0,0,1,16.5586,145.797)">
        <path d="M2286.78,2496.22L2286.78,2504.04L2244.85,2504.04L2244.85,2496.22L2286.78,2496.22ZM2295.63,2443.36L2295.63,2451.17L2233.91,2451.17L2233.91,2603L2295.63,2603L2295.63,2610.81L2206.57,2610.81L2206.57,2443.36L2295.63,2443.36Z" style="fill:rgb(0,0,255);fill-rule:nonzero;"/>
    </g>
    <g transform="matrix(1,0,0,1,-2.21572,145.184)">
        <path d="M2614.29,2440.33L2721.06,2539.81L2721.06,2440.33L2728.61,2440.33L2728.61,2607.78L2721.06,2607.78L2721.06,2578.09L2621.84,2484.86L2621.84,2607.78L2614.29,2607.78L2614.29,2440.33Z" style="fill:rgb(0,0,255);fill-rule:nonzero;"/>
    </g>
    <g transform="matrix(1,0,0,1,-19.8191,139.464)">
        <path d="M3090.76,2444.23C3102.05,2444.23 3112.9,2446.4 3123.31,2450.74C3133.9,2455.08 3143.19,2461.24 3151.18,2469.23C3159.16,2477.21 3165.33,2486.5 3169.67,2497.09C3174.01,2507.51 3176.18,2518.45 3176.18,2529.9C3176.18,2541.19 3174.01,2552.12 3169.67,2562.72C3165.33,2573.13 3159.16,2582.33 3151.18,2590.32C3143.19,2598.31 3133.9,2604.56 3123.31,2609.07C3112.9,2613.24 3102.05,2615.32 3090.76,2615.32C3076.87,2615.32 3063.76,2612.11 3051.44,2605.68L3051.44,2597.35C3063.76,2604.47 3076.87,2608.03 3090.76,2608.03C3101,2608.03 3110.99,2606.03 3120.71,2602.04C3130.26,2598.05 3138.68,2592.4 3145.97,2585.11C3153.26,2577.99 3158.9,2569.57 3162.9,2559.85C3166.89,2550.13 3168.89,2540.15 3168.89,2529.9C3168.89,2519.49 3166.89,2509.46 3162.9,2499.83C3158.9,2490.19 3153.26,2481.73 3145.97,2474.43C3138.68,2467.14 3130.26,2461.5 3120.71,2457.51C3110.99,2453.51 3101,2451.52 3090.76,2451.52C3076.87,2451.52 3063.76,2455.08 3051.44,2462.2L3051.44,2453.86C3063.76,2447.44 3076.87,2444.23 3090.76,2444.23ZM3040.5,2460.37L3040.5,2599.17C3036.85,2596.4 3033.38,2593.45 3030.08,2590.32C3022.1,2582.33 3015.93,2573.13 3011.59,2562.72C3007.25,2552.12 3005.08,2541.19 3005.08,2529.9C3005.08,2518.45 3007.25,2507.51 3011.59,2497.09C3015.93,2486.5 3022.1,2477.21 3030.08,2469.23C3033.38,2466.1 3036.85,2463.15 3040.5,2460.37Z" style="fill:rgb(0,0,255);fill-rule:nonzero;"/>
    </g>
    <g transform="matrix(1,0,0,1,-13.8647,143.479)">
        <path d="M3429.09,2442.03L3535.86,2541.51L3535.86,2442.03L3543.41,2442.03L3543.41,2609.48L3535.86,2609.48L3535.86,2579.79L3436.64,2486.56L3436.64,2609.48L3429.09,2609.48L3429.09,2442.03Z" style="fill:rgb(0,0,255);fill-rule:nonzero;"/>
    </g>
    <g transform="matrix(1,0,0,1,18.4696,149.019)">
        <path d="M3891.17,2489.36L3891.17,2497.17L3849.24,2497.17L3849.24,2489.36L3891.17,2489.36ZM3900.02,2436.49L3900.02,2444.3L3838.3,2444.3L3838.3,2596.13L3900.02,2596.13L3900.02,2603.94L3810.96,2603.94L3810.96,2436.49L3900.02,2436.49Z" style="fill:rgb(0,0,255);fill-rule:nonzero;"/>
    </g>
    <g transform="matrix(1,0,0,1,-6.85495,138.383)">
        <path d="M4313.72,2450.85L4310.07,2457.36C4303.3,2454.24 4295.58,2453.46 4286.9,2455.02C4272.83,2457.28 4264.07,2464.22 4260.59,2475.85C4259.2,2481.41 4259.38,2485.92 4261.11,2489.39C4262.85,2492.87 4266.15,2496.77 4271.01,2501.11L4313.98,2528.46C4323.88,2535.4 4330.39,2541.91 4333.51,2547.99C4335.59,2551.81 4336.81,2556.93 4337.16,2563.35C4337.5,2569.6 4336.98,2575.24 4335.59,2580.28C4332.3,2592.95 4324.66,2602.76 4312.68,2609.71C4301.74,2615.61 4290.98,2618.39 4280.39,2618.04C4267.71,2617.69 4257.03,2615 4248.35,2609.97C4241.76,2605.8 4236.64,2600.68 4232.99,2594.6C4229.34,2588.53 4227.52,2582.1 4227.52,2575.33L4235.07,2574.81C4235.77,2587.83 4241.41,2597.38 4252,2603.46C4259.99,2607.97 4269.53,2610.4 4280.65,2610.75C4291.06,2610.92 4299.96,2608.06 4307.34,2602.16C4314.72,2596.25 4318.41,2588.35 4318.41,2578.46C4318.41,2574.46 4316.58,2569.95 4312.94,2564.91C4309.81,2560.4 4305.47,2556.49 4299.92,2553.2L4255.65,2524.55C4248.88,2518.3 4244.62,2511.62 4242.89,2504.5C4240.11,2489.22 4244.36,2475.33 4255.65,2462.83C4262.07,2455.71 4270.97,2450.94 4282.34,2448.51C4293.71,2446.08 4304.17,2446.86 4313.72,2450.85Z" style="fill:rgb(0,0,255);fill-rule:nonzero;"/>
    </g>
    <g transform="matrix(1,0,0,1,40.7184,546.499)">
        <rect x="205.397" y="2842.16" width="27.344" height="167.448" style="fill:rgb(0,0,255);fill-rule:nonzero;"/>
    </g>
    <g transform="matrix(1,0,0,1,1.62726,541.616)">
        <path d="M608.042,2846.78L711.428,2846.78L711.428,2854.34L673.407,2854.34L673.407,3014.49L646.063,3014.49L646.063,2854.34L608.042,2854.34L608.042,2846.78Z" style="fill:rgb(0,0,255);fill-rule:nonzero;"/>
    </g>
    <g transform="matrix(1,0,0,1,-2.28984,144.621)">
        <path d="M293.405,2844.44L289.76,2850.95C282.989,2847.83 275.263,2847.05 266.582,2848.61C252.52,2850.87 243.753,2857.81 240.28,2869.44C238.891,2875 239.065,2879.51 240.801,2882.99C242.537,2886.46 245.836,2890.36 250.697,2894.7L293.666,2922.05C303.562,2928.99 310.072,2935.5 313.197,2941.58C315.28,2945.4 316.496,2950.52 316.843,2956.94C317.19,2963.19 316.669,2968.84 315.28,2973.87C311.982,2986.54 304.343,2996.35 292.364,3003.3C281.426,3009.2 270.662,3011.98 260.072,3011.63C247.398,3011.28 236.721,3008.59 228.041,3003.56C221.444,2999.39 216.322,2994.27 212.676,2988.19C209.03,2982.12 207.207,2975.69 207.207,2968.92L214.76,2968.4C215.454,2981.42 221.096,2990.97 231.687,2997.05C239.673,3001.56 249.221,3003.99 260.332,3004.34C270.749,3004.51 279.647,3001.65 287.025,2995.74C294.404,2989.84 298.093,2981.94 298.093,2972.05C298.093,2968.05 296.27,2963.54 292.624,2958.51C289.499,2953.99 285.159,2950.09 279.603,2946.79L235.332,2918.14C228.562,2911.89 224.308,2905.21 222.572,2898.09C219.794,2882.81 224.048,2868.92 235.332,2856.42C241.756,2849.3 250.654,2844.53 262.025,2842.1C273.397,2839.67 283.857,2840.45 293.405,2844.44Z" style="fill:rgb(0,0,255);fill-rule:nonzero;"/>
    </g>
    <g transform="matrix(1,0,0,1,8.8944,137.507)">
        <path d="M688.145,2900.7L688.145,2908.51L646.218,2908.51L646.218,2900.7L688.145,2900.7ZM696.999,2847.83L696.999,2855.65L635.28,2855.65L635.28,3007.47L696.999,3007.47L696.999,3015.28L607.937,3015.28L607.937,2847.83L696.999,2847.83Z" style="fill:rgb(0,0,255);fill-rule:nonzero;"/>
    </g>
    <g transform="matrix(1,0,0,1,-14.262,127.395)">
        <path d="M1146.21,2859.59L1097.77,2979.9L1093.87,2970L1137.62,2859.59L1146.21,2859.59ZM1037.88,2859.59L1091.78,2994.48L1077.2,3030.68L1008.19,2859.59L1037.88,2859.59Z" style="fill:rgb(0,0,255);fill-rule:nonzero;"/>
    </g>
    <g transform="matrix(1,0,0,1,23.8804,132.721)">
        <path d="M1476.31,2905.49L1476.31,2913.3L1434.38,2913.3L1434.38,2905.49L1476.31,2905.49ZM1485.16,2852.62L1485.16,2860.43L1423.44,2860.43L1423.44,3012.26L1485.16,3012.26L1485.16,3020.07L1396.1,3020.07L1396.1,2852.62L1485.16,2852.62Z" style="fill:rgb(0,0,255);fill-rule:nonzero;"/>
    </g>
    <g transform="matrix(1,0,0,1,-25.1676,137.925)">
        <path d="M1834.09,2852.7L1940.86,2952.18L1940.86,2852.7L1948.42,2852.7L1948.42,3020.15L1940.86,3020.15L1940.86,2990.46L1841.64,2897.23L1841.64,3020.15L1834.09,3020.15L1834.09,2852.7Z" style="fill:rgb(0,0,255);fill-rule:nonzero;"/>
    </g>
    <g transform="matrix(1,0,0,1,-47.0893,133.63)">
        <path d="M2305.12,2857L2325.43,2909.86L2345.48,2857L2354.33,2857L2329.59,2920.28L2355.38,2982.26L2404.86,2857L2413.45,2857L2344.7,3028.09L2344.44,3027.57L2275.43,2857L2305.12,2857ZM2245.74,2857L2295.74,2982.26L2305.12,2959.86L2309.02,2970.02L2285.32,3028.09L2216.05,2857L2245.74,2857Z" style="fill:rgb(0,0,255);fill-rule:nonzero;"/>
    </g>
    <g transform="matrix(1,0,0,1,6.4971,128.909)">
        <path d="M2698.42,2911.17L2698.42,2918.99L2656.49,2918.99L2656.49,2911.17L2698.42,2911.17ZM2707.27,2858.31L2707.27,2866.12L2645.55,2866.12L2645.55,3017.94L2707.27,3017.94L2707.27,3025.76L2618.21,3025.76L2618.21,2858.31L2707.27,2858.31Z" style="fill:rgb(0,0,255);fill-rule:nonzero;"/>
    </g>
    <g transform="matrix(1,0,0,1,42.6531,131.664)">
        <rect x="3014.49" y="2855.42" width="27.344" height="167.448" style="fill:rgb(0,0,255);fill-rule:nonzero;"/>
    </g>
    <g transform="matrix(1,0,0,1,-24.5236,131.778)">
        <path d="M3582.07,2951.79C3581.55,2959.26 3579.85,2966.59 3576.99,2973.8C3574.12,2981 3570.17,2987.64 3565.14,2993.72C3560.1,2999.8 3554.24,3005.18 3547.56,3009.87C3540.88,3014.55 3533.19,3018.2 3524.51,3020.8C3515.83,3023.41 3506.81,3024.71 3497.43,3024.71C3482.67,3024.71 3468.96,3021.24 3456.28,3014.29L3456.28,3005.18C3460.45,3007.78 3464.88,3010.04 3469.57,3011.95C3478.59,3015.42 3487.88,3017.16 3497.43,3017.16C3507.67,3017.16 3517.57,3015.16 3527.12,3011.17C3536.84,3007.18 3545.26,3001.53 3552.38,2994.24C3558.8,2987.82 3564.01,2980.44 3568,2972.11L3513.58,2972.11L3513.58,2951.79L3582.07,2951.79ZM3445.35,2881.48L3445.35,3007C3434.06,2998.49 3425.47,2987.73 3419.57,2974.71L3419.31,2974.45L3419.31,2974.19C3414.27,2963.08 3411.75,2951.45 3411.75,2939.29C3411.75,2920.37 3418.26,2902.14 3431.28,2884.61C3435.28,2879.4 3439.97,2874.8 3445.35,2870.8L3445.35,2881.48ZM3531.02,2860.39C3541.79,2865.08 3551.16,2871.59 3559.15,2879.92L3552.12,2883.83C3545,2876.71 3536.58,2871.24 3526.86,2867.42C3517.31,2863.43 3507.5,2861.43 3497.43,2861.43C3487.88,2861.43 3478.59,2863.16 3469.57,2866.64C3464.88,2868.37 3460.45,2870.54 3456.28,2873.15L3456.28,2863.77C3457.33,2863.25 3458.45,2862.73 3459.67,2862.21C3471.47,2856.48 3484.06,2853.62 3497.43,2853.62C3509.06,2853.62 3520.26,2855.87 3531.02,2860.39Z" style="fill:rgb(0,0,255);fill-rule:nonzero;"/>
    </g>
    <g transform="matrix(1,0,0,1,7.87711,136.252)">
        <path d="M3919.34,2850.97L3919.34,3018.41L3911.79,3018.41L3911.79,2916.85L3851.11,2916.85L3851.11,2909.04L3911.79,2909.04L3911.79,2850.97L3919.34,2850.97ZM3840.17,2850.97L3840.17,3018.41L3812.83,3018.41L3812.83,2850.97L3840.17,2850.97Z" style="fill:rgb(0,0,255);fill-rule:nonzero;"/>
    </g>
    <g transform="matrix(1,0,0,1,-2.26169,138.86)">
        <path d="M4225.64,2848.1L4329.02,2848.1L4329.02,2855.65L4291,2855.65L4291,3015.8L4263.66,3015.8L4263.66,2855.65L4225.64,2855.65L4225.64,2848.1Z" style="fill:rgb(0,0,255);fill-rule:nonzero;"/>
    </g>
    <g transform="matrix(1,0,0,1,34.5647,136.11)">
        <path d="M1064.05,3305.16L1064.05,3312.97L1022.12,3312.97L1022.12,3305.16L1064.05,3305.16ZM1072.9,3252.29L1072.9,3260.1L1011.19,3260.1L1011.19,3411.93L1072.9,3411.93L1072.9,3419.74L983.841,3419.74L983.841,3252.29L1072.9,3252.29Z" style="fill:rgb(0,0,255);fill-rule:nonzero;"/>
    </g>
    <g transform="matrix(1,0,0,1,6.66076,133.961)">
        <path d="M1400.69,3254.7L1507.46,3354.18L1507.46,3254.7L1515.01,3254.7L1515.01,3422.15L1507.46,3422.15L1507.46,3392.46L1408.24,3299.23L1408.24,3422.15L1400.69,3422.15L1400.69,3254.7Z" style="fill:rgb(0,0,255);fill-rule:nonzero;"/>
    </g>
    <g transform="matrix(1,0,0,1,16.8642,135.512)">
        <path d="M1880.55,3254.87L1876.9,3261.38C1870.13,3258.25 1862.41,3257.47 1853.73,3259.03C1839.66,3261.29 1830.9,3268.23 1827.43,3279.87C1826.04,3285.42 1826.21,3289.94 1827.95,3293.41C1829.68,3296.88 1832.98,3300.79 1837.84,3305.13L1880.81,3332.47C1890.71,3339.41 1897.22,3345.93 1900.34,3352C1902.43,3355.82 1903.64,3360.94 1903.99,3367.37C1904.34,3373.62 1903.81,3379.26 1902.43,3384.29C1899.13,3396.97 1891.49,3406.78 1879.51,3413.72C1868.57,3419.62 1857.81,3422.4 1847.22,3422.05C1834.54,3421.71 1823.87,3419.02 1815.19,3413.98C1808.59,3409.81 1803.47,3404.69 1799.82,3398.62C1796.18,3392.54 1794.35,3386.12 1794.35,3379.35L1801.9,3378.83C1802.6,3391.85 1808.24,3401.39 1818.83,3407.47C1826.82,3411.98 1836.37,3414.41 1847.48,3414.76C1857.89,3414.94 1866.79,3412.07 1874.17,3406.17C1881.55,3400.27 1885.24,3392.37 1885.24,3382.47C1885.24,3378.48 1883.41,3373.96 1879.77,3368.93C1876.64,3364.41 1872.3,3360.51 1866.75,3357.21L1822.48,3328.56C1815.71,3322.31 1811.45,3315.63 1809.72,3308.51C1806.94,3293.23 1811.19,3279.35 1822.48,3266.85C1828.9,3259.73 1837.8,3254.95 1849.17,3252.52C1860.54,3250.09 1871,3250.87 1880.55,3254.87Z" style="fill:rgb(0,0,255);fill-rule:nonzero;"/>
    </g>
    <g transform="matrix(1,0,0,1,31.1911,132.07)">
        <rect x="2222.8" y="3254.59" width="27.344" height="167.448" style="fill:rgb(0,0,255);fill-rule:nonzero;"/>
    </g>
    <g transform="matrix(1,0,0,1,-3.83517,118.898)">
        <path d="M2658.75,3376.01L2614.48,3437.21L2605.1,3437.21L2654.32,3368.98L2658.75,3376.01ZM2641.56,3269.76L2679.32,3334.09L2721.77,3269.76L2731.14,3269.76L2683.49,3341.12L2741.04,3437.21L2709.01,3437.21L2609.79,3269.76L2641.56,3269.76Z" style="fill:rgb(0,0,255);fill-rule:nonzero;"/>
    </g>
    <g transform="matrix(1,0,0,1,20.8046,137.223)">
        <path d="M3011.99,3251.44L3115.37,3251.44L3115.37,3258.99L3077.35,3258.99L3077.35,3419.15L3050.01,3419.15L3050.01,3258.99L3011.99,3258.99L3011.99,3251.44Z" style="fill:rgb(0,0,255);fill-rule:nonzero;"/>
    </g>
    <g transform="matrix(1,0,0,1,34.3454,142.845)">
        <rect x="3424.37" y="3245.82" width="27.344" height="167.448" style="fill:rgb(0,0,255);fill-rule:nonzero;"/>
    </g>
    <g transform="matrix(1,0,0,1,-8.73897,132.207)">
        <path d="M3918.38,3309.32L3918.38,3317.13L3876.45,3317.13L3876.45,3309.32L3918.38,3309.32ZM3927.23,3256.45L3927.23,3264.27L3865.51,3264.27L3865.51,3416.09L3927.23,3416.09L3927.23,3423.9L3838.17,3423.9L3838.17,3256.45L3927.23,3256.45Z" style="fill:rgb(0,0,255);fill-rule:nonzero;"/>
    </g>
    <g transform="matrix(1,0,0,1,-6.83198,139.018)">
        <path d="M4313.23,3251.62L4309.58,3258.13C4302.81,3255.01 4295.08,3254.22 4286.4,3255.79C4272.34,3258.05 4263.57,3264.99 4260.1,3276.62C4258.71,3282.18 4258.89,3286.69 4260.62,3290.16C4262.36,3293.64 4265.66,3297.54 4270.52,3301.88L4313.49,3329.22C4323.38,3336.17 4329.89,3342.68 4333.02,3348.76C4335.1,3352.58 4336.32,3357.7 4336.66,3364.12C4337.01,3370.37 4336.49,3376.01 4335.1,3381.05C4331.8,3393.72 4324.16,3403.53 4312.19,3410.47C4301.25,3416.38 4290.48,3419.16 4279.89,3418.81C4267.22,3418.46 4256.54,3415.77 4247.86,3410.74C4241.27,3406.57 4236.14,3401.45 4232.5,3395.37C4228.85,3389.3 4227.03,3382.87 4227.03,3376.1L4234.58,3375.58C4235.27,3388.6 4240.92,3398.15 4251.51,3404.22C4259.49,3408.74 4269.04,3411.17 4280.15,3411.52C4290.57,3411.69 4299.47,3408.83 4306.85,3402.92C4314.23,3397.02 4317.91,3389.12 4317.91,3379.22C4317.91,3375.23 4316.09,3370.72 4312.45,3365.68C4309.32,3361.17 4304.98,3357.26 4299.43,3353.97L4255.15,3325.32C4248.38,3319.07 4244.13,3312.39 4242.39,3305.27C4239.62,3289.99 4243.87,3276.1 4255.15,3263.6C4261.58,3256.48 4270.48,3251.71 4281.85,3249.28C4293.22,3246.85 4303.68,3247.63 4313.23,3251.62Z" style="fill:rgb(0,0,255);fill-rule:nonzero;"/>
    </g>
    <g transform="matrix(1,0,0,1,10.5905,148.044)">
        <path d="M197.504,3642.06L300.89,3642.06L300.89,3649.61L262.869,3649.61L262.869,3809.77L235.525,3809.77L235.525,3649.61L197.504,3649.61L197.504,3642.06Z" style="fill:rgb(0,0,255);fill-rule:nonzero;"/>
    </g>
    <g transform="matrix(1,0,0,1,46.8837,151.339)">
        <rect x="600.807" y="3638.77" width="27.344" height="167.448" style="fill:rgb(0,0,255);fill-rule:nonzero;"/>
    </g>
    <g transform="matrix(1,0,0,1,-36.7088,143.471)">
        <path d="M1902.93,3644.81C1914.21,3644.81 1925.06,3646.98 1935.48,3651.32C1946.07,3655.66 1955.36,3661.83 1963.34,3669.81C1971.33,3677.8 1977.49,3687.09 1981.83,3697.68C1986.17,3708.09 1988.34,3719.03 1988.34,3730.49C1988.34,3741.77 1986.17,3752.71 1981.83,3763.3C1977.49,3773.72 1971.33,3782.92 1963.34,3790.91C1955.36,3798.89 1946.07,3805.14 1935.48,3809.66C1925.06,3813.82 1914.21,3815.91 1902.93,3815.91C1889.04,3815.91 1875.93,3812.69 1863.6,3806.27L1863.6,3797.94C1875.93,3805.06 1889.04,3808.62 1902.93,3808.62C1913.17,3808.62 1923.15,3806.62 1932.87,3802.62C1942.42,3798.63 1950.84,3792.99 1958.13,3785.7C1965.43,3778.58 1971.07,3770.16 1975.06,3760.44C1979.05,3750.72 1981.05,3740.73 1981.05,3730.49C1981.05,3720.07 1979.05,3710.05 1975.06,3700.41C1971.07,3690.78 1965.43,3682.31 1958.13,3675.02C1950.84,3667.73 1942.42,3662.09 1932.87,3658.09C1923.15,3654.1 1913.17,3652.1 1902.93,3652.1C1889.04,3652.1 1875.93,3655.66 1863.6,3662.78L1863.6,3654.45C1875.93,3648.02 1889.04,3644.81 1902.93,3644.81ZM1852.66,3660.96L1852.66,3799.76C1849.02,3796.98 1845.55,3794.03 1842.25,3790.91C1834.26,3782.92 1828.1,3773.72 1823.76,3763.3C1819.42,3752.71 1817.25,3741.77 1817.25,3730.49C1817.25,3719.03 1819.42,3708.09 1823.76,3697.68C1828.1,3687.09 1834.26,3677.8 1842.25,3669.81C1845.55,3666.69 1849.02,3663.74 1852.66,3660.96Z" style="fill:rgb(0,0,255);fill-rule:nonzero;"/>
    </g>
    <g transform="matrix(1,0,0,1,28.0933,136.436)">
        <rect x="2225.9" y="3651.85" width="27.344" height="167.448" style="fill:rgb(0,0,255);fill-rule:nonzero;"/>
    </g>
    <g transform="matrix(1,0,0,1,-13.4443,135.851)">
        <path d="M2756.77,3797.74C2751.39,3803.13 2745.74,3807.9 2739.84,3812.07C2737.06,3814.15 2734.07,3816.02 2730.86,3817.67C2727.65,3819.32 2724.22,3820.75 2720.57,3821.96C2713.45,3824.39 2705.81,3825.61 2697.66,3825.61C2682.38,3825.61 2669.36,3823.09 2658.59,3818.06C2657.2,3817.36 2655.81,3816.58 2654.43,3815.71L2654.43,3806.86C2656.68,3808.25 2658.85,3809.46 2660.94,3810.51C2666.14,3812.94 2671.61,3814.85 2677.34,3816.24C2682.9,3817.45 2689.67,3818.06 2697.66,3818.06C2703.56,3818.06 2709.29,3817.28 2714.84,3815.71C2720.57,3813.98 2725.74,3811.72 2730.34,3808.94C2734.94,3806.16 2738.89,3803.56 2742.19,3801.13C2745.48,3798.35 2748.61,3795.49 2751.56,3792.54L2756.77,3797.74ZM2643.49,3680.56L2643.49,3808.94C2640.02,3806.34 2636.72,3803.47 2633.59,3800.35C2625.61,3792.36 2619.44,3783.16 2615.1,3772.74C2610.76,3762.16 2608.59,3751.22 2608.59,3739.93C2608.59,3728.65 2610.76,3717.71 2615.1,3707.12C2619.44,3696.7 2625.61,3687.5 2633.59,3679.52C2636.72,3676.39 2640.02,3673.53 2643.49,3670.92L2643.49,3680.56ZM2694.27,3654.52C2705.21,3654.69 2716.19,3656.95 2727.21,3661.29C2738.24,3665.63 2748,3672.14 2756.51,3680.82L2750.78,3686.03L2748.44,3683.42C2746.7,3681.86 2744.1,3679.95 2740.62,3677.69C2737.15,3675.26 2733.29,3672.88 2729.03,3670.53C2724.78,3668.19 2719.53,3666.24 2713.28,3664.67C2707.2,3663.11 2701.04,3662.33 2694.79,3662.33C2680.38,3662.33 2667.79,3665.28 2657.03,3671.18C2656.16,3671.7 2655.29,3672.22 2654.43,3672.74L2654.43,3663.89C2659.81,3661.11 2665.88,3658.86 2672.66,3657.12C2679.77,3655.38 2686.98,3654.52 2694.27,3654.52Z" style="fill:rgb(0,0,255);fill-rule:nonzero;"/>
    </g>
    <g transform="matrix(1,0,0,1,-3.30193,144.573)">
        <path d="M1064.29,3645.53L1070.02,3645.53L1138.77,3812.98L1109.34,3812.98L1085.64,3755.17L1062.72,3755.17L1062.72,3747.62L1082.52,3747.62L1056.21,3683.82L1029.65,3747.62L1046.06,3747.62L1046.06,3755.17L1026.27,3755.17L1002.05,3812.98L993.713,3812.98L1017.93,3755.17L999.182,3755.17L999.182,3747.62L1021.32,3747.62L1064.29,3645.53Z" style="fill:rgb(0,0,255);fill-rule:nonzero;"/>
    </g>
    <g transform="matrix(1,0,0,1,4.21558,128.344)">
        <path d="M1391.03,3708.64L1391.03,3831.29L1383.47,3831.29L1383.47,3663.85C1420.97,3710.2 1446.58,3743.27 1460.3,3763.07C1466.37,3754.21 1475.83,3741.54 1488.68,3725.04C1501.53,3708.55 1512.81,3694.23 1522.54,3682.08L1537.12,3663.85L1537.12,3831.29L1529.57,3831.29L1529.57,3708.64L1460.3,3796.66L1391.03,3708.64Z" style="fill:rgb(0,0,255);fill-rule:nonzero;"/>
    </g>
    <g transform="matrix(1,0,0,1,18.5669,142.641)">
        <path d="M3002.51,3649.55L3029.85,3649.55L3029.85,3817L3002.51,3817L3002.51,3649.55ZM3033.23,3649.55L3036.88,3649.55C3045.56,3649.55 3053.81,3651.28 3061.62,3654.76C3069.78,3658.23 3076.81,3663.09 3082.71,3669.34C3088.96,3675.42 3093.74,3682.62 3097.04,3690.95C3100.33,3698.94 3101.98,3707.36 3101.98,3716.22C3101.98,3725.07 3100.33,3733.58 3097.04,3741.74C3093.74,3749.9 3088.96,3757.1 3082.71,3763.35C3076.81,3769.6 3069.78,3774.46 3061.62,3777.93C3053.81,3781.23 3045.56,3782.88 3036.88,3782.88L3033.23,3782.88L3033.23,3775.07L3036.88,3775.07C3044.35,3775.07 3051.64,3773.51 3058.76,3770.38C3065.87,3767.43 3072.04,3763.26 3077.24,3757.88C3082.63,3752.33 3086.79,3745.99 3089.74,3738.87C3092.7,3731.58 3094.17,3724.07 3094.17,3716.35C3094.17,3708.62 3092.7,3701.2 3089.74,3694.08C3086.79,3686.62 3082.67,3680.19 3077.37,3674.81C3072.08,3669.43 3065.87,3665.26 3058.76,3662.31C3051.64,3659.18 3044.35,3657.62 3036.88,3657.62L3033.23,3657.62L3033.23,3649.55Z" style="fill:rgb(0,0,255);fill-rule:nonzero;"/>
    </g>
    <g transform="matrix(1,0,0,1,-5.36352,119.531)">
        <path d="M3408.48,3717.45L3408.48,3840.11L3400.93,3840.11L3400.93,3672.66C3438.43,3719.01 3464.03,3752.09 3477.75,3771.88C3483.83,3763.02 3493.29,3750.35 3506.14,3733.86C3518.98,3717.36 3530.27,3703.04 3539.99,3690.89L3554.57,3672.66L3554.57,3840.11L3547.02,3840.11L3547.02,3717.45L3477.75,3805.47L3408.48,3717.45Z" style="fill:rgb(0,0,255);fill-rule:nonzero;"/>
    </g>
    <g transform="matrix(1,0,0,1,4.34686,143.717)">
        <path d="M3943.7,3787.8C3938.32,3793.18 3932.68,3797.95 3926.78,3802.12C3924,3804.2 3921,3806.07 3917.79,3807.72C3914.58,3809.37 3911.15,3810.8 3907.5,3812.01C3900.39,3814.45 3892.75,3815.66 3884.59,3815.66C3869.31,3815.66 3856.29,3813.14 3845.53,3808.11C3844.14,3807.41 3842.75,3806.63 3841.36,3805.76L3841.36,3796.91C3843.62,3798.3 3845.79,3799.51 3847.87,3800.56C3853.08,3802.99 3858.55,3804.9 3864.28,3806.28C3869.83,3807.5 3876.6,3808.11 3884.59,3808.11C3890.49,3808.11 3896.22,3807.33 3901.78,3805.76C3907.5,3804.03 3912.67,3801.77 3917.27,3798.99C3921.87,3796.22 3925.82,3793.61 3929.12,3791.18C3932.42,3788.4 3935.54,3785.54 3938.49,3782.59L3943.7,3787.8ZM3830.42,3670.61L3830.42,3798.99C3826.95,3796.39 3823.65,3793.53 3820.53,3790.4C3812.54,3782.41 3806.38,3773.21 3802.04,3762.8C3797.7,3752.2 3795.53,3741.27 3795.53,3729.98C3795.53,3718.7 3797.7,3707.76 3802.04,3697.17C3806.38,3686.75 3812.54,3677.55 3820.53,3669.57C3823.65,3666.44 3826.95,3663.58 3830.42,3660.97L3830.42,3670.61ZM3881.2,3644.57C3892.14,3644.74 3903.12,3647 3914.14,3651.34C3925.17,3655.68 3934.93,3662.19 3943.44,3670.87L3937.71,3676.08L3935.37,3673.47C3933.63,3671.91 3931.03,3670 3927.56,3667.74C3924.08,3665.31 3920.22,3662.93 3915.97,3660.58C3911.71,3658.24 3906.46,3656.28 3900.21,3654.72C3894.14,3653.16 3887.97,3652.38 3881.72,3652.38C3867.31,3652.38 3854.73,3655.33 3843.96,3661.23C3843.1,3661.75 3842.23,3662.28 3841.36,3662.8L3841.36,3653.94C3846.74,3651.16 3852.82,3648.91 3859.59,3647.17C3866.71,3645.43 3873.91,3644.57 3881.2,3644.57Z" style="fill:rgb(0,0,255);fill-rule:nonzero;"/>
    </g>
    <g transform="matrix(1,0,0,1,-6.57878,134.26)">
        <path d="M4333.03,3655.85L4275.21,3703.5L4337.45,3823.3L4328.34,3823.3C4321.57,3812.18 4312.93,3796.51 4302.43,3776.29C4291.92,3756.06 4283.03,3738.66 4275.73,3724.08L4265.06,3702.2L4321.31,3655.85L4333.03,3655.85ZM4254.12,3655.85L4254.12,3823.3L4226.78,3823.3L4226.78,3655.85L4254.12,3655.85Z" style="fill:rgb(0,0,255);fill-rule:nonzero;"/>
    </g>
    <g transform="matrix(1,0,0,1,391.447,140.199)">
        <path d="M278.489,4052.02C296.892,4052.02 312.169,4059.66 324.322,4074.93C336.649,4090.21 342.812,4109.66 342.812,4133.27C342.812,4158.09 336.475,4178.67 323.801,4194.99C311.301,4211.31 295.503,4219.47 276.406,4219.47C265.121,4219.47 254.965,4217.12 245.937,4212.44L245.937,4201.5C254.444,4207.23 264.6,4210.09 276.406,4210.09C284.565,4210.09 291.9,4208.4 298.411,4205.01C304.921,4201.63 310.867,4196.38 316.249,4189.26C327.708,4174.67 333.437,4156.01 333.437,4133.27C333.437,4111.91 327.968,4094.47 317.031,4080.92C311.649,4074.15 305.833,4069.29 299.583,4066.34C293.506,4063.04 286.475,4061.39 278.489,4061.39C265.815,4061.39 254.965,4064.61 245.937,4071.03L245.937,4060.09C255.485,4054.71 266.336,4052.02 278.489,4052.02ZM232.656,4069.73L232.656,4203.32C230.399,4201.24 228.228,4198.98 226.145,4196.55C212.777,4181.44 206.093,4162.35 206.093,4139.26C206.093,4113.74 212.864,4092.82 226.406,4076.5C228.489,4074.07 230.572,4071.81 232.656,4069.73Z" style="fill:rgb(0,0,255);fill-rule:nonzero;"/>
    </g>
    <g transform="matrix(1,0,0,1,441.6,148.033)">
        <path d="M603.348,4062.67L648.4,4042.1L648.4,4213.72L620.536,4213.72L620.536,4063.98L606.734,4069.97L603.348,4062.67Z" style="fill:rgb(0,0,255);fill-rule:nonzero;"/>
    </g>
    <g transform="matrix(1,0,0,1,393.717,150.819)">
        <path d="M1078.2,4039.18C1084.27,4039.18 1090.48,4040.36 1096.82,4042.7C1103.15,4045.04 1108.93,4048.21 1114.13,4052.2C1119.52,4056.2 1123.94,4061.15 1127.42,4067.05C1130.89,4072.78 1132.71,4078.86 1132.88,4085.28C1132.88,4091.01 1132.32,4096.52 1131.19,4101.82C1130.06,4107.11 1128.72,4111.84 1127.16,4116.01C1125.59,4120 1123.25,4124.08 1120.12,4128.25C1117,4132.41 1114.22,4135.89 1111.79,4138.66C1109.53,4141.27 1106.15,4144.39 1101.63,4148.04C1097.12,4151.69 1093.61,4154.46 1091.09,4156.37C1088.57,4158.28 1084.79,4160.97 1079.76,4164.44C1077.85,4165.83 1076.46,4166.79 1075.59,4167.31C1062.05,4177.03 1045.3,4188.92 1025.33,4202.99L1139.39,4202.99L1139.39,4211.06L1011.27,4211.06L1011.27,4202.99L1063.61,4159.5C1072.47,4152.2 1079.89,4145.26 1085.88,4138.66C1091.87,4132.07 1096.43,4125.73 1099.55,4119.65C1102.85,4113.58 1105.02,4107.85 1106.06,4102.47C1107.28,4097.08 1107.8,4091.36 1107.62,4085.28C1107.62,4079.03 1105.71,4073.13 1101.89,4067.57C1098.08,4062.01 1093.13,4057.67 1087.05,4054.55C1080.97,4051.42 1074.72,4049.86 1068.3,4049.86C1058.58,4049.86 1050.25,4053.33 1043.3,4060.28C1036.36,4067.22 1032.88,4075.56 1032.88,4085.28L1024.81,4085.28C1024.81,4079.2 1025.94,4073.47 1028.2,4068.09C1030.63,4062.54 1034.1,4057.59 1038.61,4053.25C1042.95,4048.91 1048.51,4045.43 1055.28,4042.83C1062.22,4040.4 1069.86,4039.18 1078.2,4039.18Z" style="fill:rgb(0,0,255);fill-rule:nonzero;"/>
    </g>
    <g transform="matrix(1,0,0,1,401.196,137.08)">
        <path d="M1467.12,4052.79C1474.59,4051.75 1481.36,4052.19 1487.44,4054.1C1493.69,4055.83 1500.11,4059.39 1506.71,4064.77C1510.53,4068.77 1513.22,4073.28 1514.78,4078.32C1516.69,4083.18 1517.64,4087.86 1517.64,4092.38C1517.47,4110.26 1510.7,4122.5 1497.33,4129.1L1498.89,4129.36C1499.76,4129.7 1500.98,4130.23 1502.54,4130.92C1504.1,4131.61 1505.93,4132.57 1508.01,4133.78C1509.92,4134.82 1511.92,4136.34 1514,4138.34C1516.08,4140.34 1517.99,4142.64 1519.73,4145.24C1521.64,4147.67 1523.29,4150.8 1524.68,4154.62C1526.07,4158.44 1527.11,4162.6 1527.8,4167.12C1529.02,4177.36 1527.71,4186.39 1523.89,4194.2C1520.08,4202.01 1514.61,4208.26 1507.49,4212.95C1501.59,4216.94 1495.34,4219.9 1488.74,4221.8C1482.32,4223.71 1476.59,4224.67 1471.55,4224.67C1458.36,4224.67 1447.25,4222.59 1438.22,4218.42C1431.27,4215.12 1425.28,4210.17 1420.25,4203.57C1415.21,4196.98 1412,4188.65 1410.61,4178.57L1419.73,4177.27C1421.12,4185.95 1423.72,4192.9 1427.54,4198.11C1431.53,4203.32 1436.48,4207.22 1442.38,4209.82C1457.14,4215.55 1470.42,4215.38 1482.23,4209.3C1491.78,4204.44 1498.63,4197.15 1502.8,4187.43C1507.14,4176.84 1507.23,4166.68 1503.06,4156.96C1498.03,4145.68 1487.96,4138.04 1472.85,4134.04L1472.59,4134.04L1472.59,4124.67L1472.85,4124.67C1477.54,4124.67 1481.71,4123.63 1485.35,4121.54C1489,4119.46 1491.78,4116.86 1493.69,4113.73C1495.42,4110.43 1496.73,4106.79 1497.59,4102.79C1498.29,4098.8 1498.11,4094.81 1497.07,4090.82C1496.2,4086.47 1494.73,4082.57 1492.64,4079.1C1490.74,4075.45 1487.96,4072.24 1484.31,4069.46C1480.67,4066.68 1476.5,4064.86 1471.81,4063.99C1468.69,4063.12 1465.65,4062.95 1462.7,4063.47C1459.75,4063.82 1457.14,4064.43 1454.88,4065.29C1452.63,4066.34 1450.46,4067.64 1448.37,4069.2C1446.46,4070.76 1444.82,4072.15 1443.43,4073.37C1442.21,4074.76 1441.08,4076.14 1440.04,4077.53C1437.26,4081.7 1435.7,4085.52 1435.35,4088.99L1425.98,4088.21L1426.24,4086.13C1426.59,4084.57 1427.28,4082.48 1428.32,4079.88C1429.36,4077.27 1430.75,4074.76 1432.49,4072.33C1439.78,4061.74 1451.33,4055.22 1467.12,4052.79Z" style="fill:rgb(0,0,255);fill-rule:nonzero;"/>
    </g>
    <g transform="matrix(1,0,0,1,377.356,137.97)">
        <path d="M1935.99,4051.77L1935.99,4166.36L1968.54,4166.36L1968.54,4174.69L1935.99,4174.69L1935.99,4224.17L1908.12,4224.17L1908.12,4081.46L1935.99,4051.77ZM1894.32,4096.3L1894.32,4108.54L1840.42,4166.36L1894.32,4166.36L1894.32,4174.69L1821.14,4174.69L1894.32,4096.3Z" style="fill:rgb(0,0,255);fill-rule:nonzero;"/>
    </g>
    <g transform="matrix(1,0,0,1,384.932,134.455)">
        <path d="M2248.68,4056.07L2337.74,4055.29L2337.48,4063.36L2256.23,4064.4L2253.36,4114.92C2262.22,4110.58 2271.16,4107.98 2280.19,4107.11C2282.97,4106.94 2285.66,4106.94 2288.26,4107.11C2300.07,4107.98 2310.31,4110.67 2318.99,4115.19C2328.02,4119.87 2335.92,4127.51 2342.69,4138.1C2349.28,4148.86 2351.63,4161.02 2349.72,4174.56C2348.33,4184.8 2345.2,4193.4 2340.34,4200.34C2335.66,4206.94 2328.36,4212.93 2318.47,4218.31C2305.97,4225.25 2293.38,4228.38 2280.71,4227.69C2267.17,4226.82 2256.75,4224.3 2249.46,4220.13C2241.12,4215.44 2233.75,4207.28 2227.32,4195.65L2235.66,4190.97C2241.21,4201.03 2247.29,4207.98 2253.89,4211.8C2260.14,4215.44 2269.25,4217.53 2281.23,4218.05C2292.17,4218.74 2303.02,4216.14 2313.78,4210.24C2316.56,4208.67 2319.25,4206.94 2321.85,4205.03L2323.16,4129.25C2318.47,4125.08 2313.26,4122.04 2307.53,4120.13C2302.15,4118.4 2295.55,4117.27 2287.74,4116.75C2282.18,4116.23 2275.85,4117.01 2268.73,4119.09C2261.61,4121.17 2255.8,4123.43 2251.28,4125.86C2246.94,4128.29 2244.6,4129.94 2244.25,4130.81L2244.77,4129.51L2248.68,4056.07Z" style="fill:rgb(0,0,255);fill-rule:nonzero;"/>
    </g>
    <g transform="matrix(1,0,0,1,418.081,142.772)">
        <path d="M2638.95,4215.33L2638.95,4205.17C2644.85,4207.61 2651.1,4208.82 2657.7,4208.82C2671.41,4208.82 2683.05,4204.05 2692.59,4194.5C2702.14,4184.95 2706.92,4173.36 2706.92,4159.73C2706.92,4146.1 2702.14,4134.47 2692.59,4124.84C2683.05,4115.2 2671.41,4110.38 2657.7,4110.38C2651.1,4110.38 2644.85,4111.6 2638.95,4114.03L2638.95,4103.87C2645.02,4101.79 2651.27,4100.75 2657.7,4100.75C2674.02,4100.75 2687.91,4106.52 2699.36,4118.07C2710.82,4129.61 2716.55,4143.45 2716.55,4159.6C2716.55,4175.75 2710.82,4189.59 2699.36,4201.14C2687.91,4212.68 2674.02,4218.45 2657.7,4218.45C2651.27,4218.45 2645.02,4217.41 2638.95,4215.33ZM2674.1,4047.88C2692.68,4047.88 2706.74,4054.83 2716.29,4068.72L2708.22,4073.14C2699.36,4062.38 2687.73,4057 2673.32,4057C2664.12,4057 2655.31,4059.12 2646.89,4063.38C2638.47,4067.63 2631.39,4073.58 2625.67,4081.22L2625.67,4208.82C2606.22,4195.28 2597.02,4172.97 2598.06,4141.89C2598.06,4123.14 2600.58,4107.52 2605.61,4095.02C2610.65,4082.52 2618.46,4071.75 2629.05,4062.73C2640.51,4052.83 2655.53,4047.88 2674.1,4047.88Z" style="fill:rgb(0,0,255);fill-rule:nonzero;"/>
    </g>
    <g transform="matrix(1,0,0,1,406.83,141.877)">
        <path d="M3014.36,4064.26L3014.36,4054.62L3110.2,4054.62L3113.06,4046.29L3120.61,4048.11L3119.05,4054.62L3125.82,4054.62L3125.82,4064.26L3116.97,4064.26L3100.3,4119.73L3106.55,4119.73L3106.55,4129.36L3097.7,4129.36L3070.87,4221.03L3043.01,4221.03L3080.77,4129.36L3074.52,4129.36L3074.52,4119.73L3084.68,4119.73L3107.07,4064.26L3014.36,4064.26Z" style="fill:rgb(0,0,255);fill-rule:nonzero;"/>
    </g>
    <g transform="matrix(1,0,0,1,413.217,143.408)">
        <path d="M3458.77,4059.34C3454.26,4060.38 3450.26,4062.47 3446.79,4065.59L3446.79,4106.74C3452,4111.42 3458.16,4113.77 3465.28,4113.77C3472.92,4113.77 3479.43,4111.08 3484.81,4105.69C3490.19,4100.31 3492.89,4093.8 3492.89,4086.16C3492.89,4079.57 3490.89,4073.79 3486.89,4068.85C3482.9,4063.9 3477.87,4060.73 3471.79,4059.34L3471.79,4049.7C3480.47,4051.27 3487.72,4055.48 3493.54,4062.34C3499.35,4069.19 3502.26,4077.14 3502.26,4086.16C3502.26,4092.93 3500.57,4099.14 3497.18,4104.78C3493.8,4110.43 3489.33,4114.9 3483.77,4118.19C3493.84,4122.01 3502.04,4128.4 3508.38,4137.34C3514.72,4146.28 3517.89,4156.3 3517.89,4167.41C3517.89,4180.78 3513.46,4192.41 3504.6,4202.31C3495.75,4212.2 3484.81,4217.94 3471.79,4219.5L3471.79,4210.12C3482.21,4208.56 3490.93,4203.74 3497.96,4195.67C3504.99,4187.6 3508.51,4178.18 3508.51,4167.41C3508.51,4155.44 3504.3,4145.23 3495.88,4136.82C3487.46,4128.4 3477.26,4124.19 3465.28,4124.19C3456.08,4124.19 3447.66,4126.88 3440.02,4132.26L3440.02,4202.57C3445.58,4206.56 3451.83,4209.08 3458.77,4210.12L3458.77,4219.5C3445.75,4217.94 3434.81,4212.2 3425.96,4202.31C3417.1,4192.41 3412.68,4180.78 3412.68,4167.41C3412.68,4156.3 3415.85,4146.28 3422.18,4137.34C3428.52,4128.4 3436.72,4122.01 3446.79,4118.19C3441.24,4114.9 3436.76,4110.43 3433.38,4104.78C3429.99,4099.14 3428.3,4092.93 3428.3,4086.16C3428.3,4077.14 3431.21,4069.19 3437.03,4062.34C3442.84,4055.48 3450.09,4051.27 3458.77,4049.7L3458.77,4059.34Z" style="fill:rgb(0,0,255);fill-rule:nonzero;"/>
    </g>
    <g transform="matrix(1,0,0,1,418.409,137.851)">
        <path d="M3879.98,4055.98L3879.98,4066.13C3874.08,4063.53 3867.83,4062.23 3861.23,4062.23C3847.52,4062.23 3835.89,4067.04 3826.34,4076.68C3816.79,4086.32 3812.01,4097.95 3812.01,4111.57C3812.01,4125.2 3816.79,4136.84 3826.34,4146.47C3835.89,4156.11 3847.52,4160.92 3861.23,4160.92C3867.83,4160.92 3874.08,4159.71 3879.98,4157.28L3879.98,4167.44C3873.91,4169.34 3867.66,4170.3 3861.23,4170.3C3844.91,4170.3 3831.03,4164.57 3819.57,4153.11C3808.11,4141.65 3802.38,4127.81 3802.38,4111.57C3802.38,4095.34 3808.11,4081.5 3819.57,4070.04C3831.03,4058.58 3844.91,4052.85 3861.23,4052.85C3867.66,4052.85 3873.91,4053.89 3879.98,4055.98ZM3844.83,4223.42C3826.25,4223.42 3812.19,4216.48 3802.64,4202.59L3810.71,4198.16C3819.57,4208.75 3831.2,4214.05 3845.61,4214.05C3854.81,4214.05 3863.62,4211.92 3872.04,4207.67C3880.46,4203.41 3887.54,4197.56 3893.26,4190.09L3893.26,4062.49C3912.71,4076.03 3921.91,4098.25 3920.87,4129.15C3920.87,4147.9 3918.35,4163.57 3913.32,4176.16C3908.28,4188.74 3900.47,4199.55 3889.88,4208.58C3878.6,4218.48 3863.58,4223.42 3844.83,4223.42Z" style="fill:rgb(0,0,255);fill-rule:nonzero;"/>
    </g>
    <g transform="matrix(1,0,0,1,63.387,136.169)">
        <path d="M182.077,4161.89L137.807,4223.09L128.432,4223.09L177.65,4154.86L182.077,4161.89ZM164.89,4055.64L202.65,4119.97L245.098,4055.64L254.473,4055.64L206.817,4127L264.369,4223.09L232.338,4223.09L133.119,4055.64L164.89,4055.64Z" style="fill:rgb(0,0,255);fill-rule:nonzero;"/>
    </g>
</svg>
